<svg xmlns="http://www.w3.org/2000/svg" width="853" height="231" fill="none" xmlns:v="https://vecta.io/nano"><path d="M580.377 229.627l-261.284-.994c-10.392-.071-9.682-.515-12.598-.584-7.97-.189-12.769.319-18.579.259l-82.372-.7c-28.542-.258-15.041-1.507-24.958-1.847-19.377-.656-2.895 1.056-10.512 1.411l-66.878-.654 16.359-.393c-9.699-.06-23.581-.337-7.339-.722l-10.63-.385c-1.012.582-18.184.589-19.754.926s8.088.285 8.028.314c-.64.424-40.246-.265-43.102-.315-7.551-.142-.931-.821-7.354-.79-10.615.053-4.237 1.359-16.984-.216a22.12 22.12 0 0 1-1.877-.283c-6.66-.511-7.817-.798-14.262-6.366-.789-.814-.423.057-.778-.301-4.41-4.97-4.016-6.176-3.642-5.345.485.746 1.989 2.736 2.002 2.681-.343-.822-4.208-7.965-3.839-13.249l.006-3.452 1.396-90.185-.067-36.993c.095-7.042.474-3.264.659-6.95-.916-5.908-1.001-11.544-.399-24.807-.625-4.729-.166-4.347-.235-12.613-.003-.388.003-.789.022-1.211.101-4.106 1.835-9.956 6.071-14.153 4.108-4.291 10.35-6.308 14.942-5.876-5.294.097-7.538 1.345-9.736 2.492-2.099 1.311-4.634 2.691-7.832 7.584-.601.973-3.247 5.241-3.186 11.164.061 12.493.204 30.337.674 28.345.354-1.507.029-14.377.094-14.875.375-2.896.841 4.288.682 10.654l-.233-5.204c-.471 14.301 1.355 4.466-.241 15.335-.197 1.344-.402.823-.612 3.039.087.455.302-2.255.34.079.039 2.381-.371 6.902-.026 7.576.503 1.008.303-8.857.332-9.599l-.009-.024c.263-6.563.298 7.144.346 7.798.315 4.24.554 1.349.82 7.711.152 3.63.075 12.876.127 16.287.054 3.39.289-1.884.344.397s-.125 5.121-.061 7.798c.028 1.146.3 1.088.31 1.643.114 5.949-.458 2.046-.417 7.441.026 3.495.578 15.225.723 7.14l.161 11.543.22-7.338c-.117 7.276.364 10.568.41 15.128s-.52 8.652-.228 13.67c.625 10.71.285-15.811.383-19.104.038-1.283.497 3.644.513 4.403.066 3.371-.245 7.358-.224 9.956.078 9.303.523 14.999.638 23.864l.371 31.337c-.108 8.159 7.439 15.338 15.316 14.997l33.485-.277c10.651-.076 17.06.427 21.84.398 11.184-.07 12.554-.538 22.309-.597l47.092.305c8.39.036 15.985-.457 18.167-.477l92.352-.493c11.819-.046 17.432.497 19.873.473 10.491-.104 7.678-.58 16.184-.561 4.595.01 5.454.476 6.069.492 5.415.138 6.493-.48 10.718-.515l71.756.106c1.746-.001 1.591.284 2.722.266 4.854-.086 2.598-.527 7.671-.577l32.574-.051c1.108.002 1.607.374 4.141.366s4.464-.37 8.449-.364l31.718.401c1.825-.002 4.085-.471 6.822-.475 8.589-.015 21.305.366 28.664.359l69.543-.45c5.374-.017 10.135.419 12.931.422 6.303.004 1.548-.41 7.934-.432l157.309-.35 65.99-.58a116.32 116.32 0 0 1 5.687.147c2.418.126 3.826.185 6.283-1.078 5.267-3.604 5.518-6.041 5.806-11.455l-.035-2.126c-.098-8.846.73-18.984.65-28.187s-.942-13.45-1.082-24.022c-.114-8.708.232-20.865.137-30.345l-.819-90.32c.067-5.823-5.243-10.944-10.94-10.726l-138.095.148c-30.843-.158-65.063.108-96.937-.761-2.994-.083 1.586-1.052-8.013-.824-5.156.123-12.356.973-24.276 1.053-70.869.491-146.463-1.14-218.523-.582-107.939.707-219.806 9.374-313.604-2.297-4.601-.58-2.106-3.473.651-4.292 2.558.584 4.923 1.277 7.6 1.934 3.371-3.597 2.777-2.658 15.272-2.342 7.693.196 1.548-1.331 5.648-1.764 5.316-.563 30.274-2.301 25.474.044L84.1 5.47l53.296-1.562c3.053-.113 3.194-.835 6.347-.946 8.469-.303 15.192.179 23.919.117 4.74-.033 5.398-.859 11.606-.797s6.069 1.172 14.534-.021c-5.514-1.401 19.083-.349 27.83-.421 1.27-.01 11.681-1.227 17.216-1.073 5.553.151 13.983.95 22.57.522 4.026-.201 6.469-1.147 10.813-1.191 3.054-.03 6.723.82 10.591.862s12.231-.629 13.764-.636c5.533-.033-.571.542 3.213.579l57.501.168c2.214-.043-.849-.728-.555-.751 15.03-.798 7.008.068 11.066.683 3.932.594 32.704.327 32.916-.834.884 1.46 7.279.36 8.941.322 6.464-.15 5.197 1.102 11.463.727 2.3-.136-2.178-.993.294-.962 6.109.077 11.606 1.444 19.738 1.593 1.964.037 2.602-.564 6.093-.536s18.145.788 11.384-.487c8.885 1.029 10.674.477 21.007.526 2.618.014 5.988.975 11.559.689 1.884-.097 1.829-1.015 4.665-1.017 6.485-.005 12.595.953 20.825 1.004l47.822-.264c4.361.072 3.273.969 9.615.996.932.001 8.572-.76 12.955-.679 2.638.049 16.307.613 19.064.66 4.559.076 5.373-.778 7.87-.606 7.22.495 1.428 1.739 10.115.037 2.856.956 7.933.868 9.56 2.036 2.955-1.274 6.787-.042 12.518-.463s10.432-2.866 11.821-.224c2.678-.318 14.085-.846 16.009-.882 5.671-.103 2.639.617 6.918.526.754-.015-.035-.512 4.8-.455l27.814.175c15.842.789-8.633.472-12.059 1l-1.848-.42c-7-.242-3.015.876.159 1.136s9.103-.228 11.741.138c1.314.183.5 1.508-3.475 1.346 4.253.41-1.555.84.127 1.225 1.849.422 20.962.544 21.063-.181l-11.622-.03c-4.721-1.274 9.618-5.574 22.768-3.831 9.539 1.251-6.186 2.216 16.383 1.201l-9.56-.229c-.336-.939 4.78.099 7.418-.197 1.267-.144-6.542-.819.238-1.029 5.83 1.347 10.317.006 20.095.008l-8.156.699c16.522.982-21.853 1.27 10.274 1.833l-11.599.09c1.884.49-1.13 1.926.556 2.229 4.422.794 10.965.311 16.358.379 2.36.028.897.414 1.095.416 3.233.041 2.519-.523 5.355-.56 3.569-.046 13.878.495 15.549.431 4.324-.16-2.876-1.262-2.459-1.346 2.757-.535 8.388-.091 8.092-.79-13.549.482-52.595-.159-17.271-1.305-9.739-1.145-6.926-2.719 7.077-2.813 11.583-.081 4.109.531 10.138 1.226.594.066 9.731.284 14.407.171 1.709-.034 2.916.08 3.153-.008-.721.925 4.344 3.009.617 3.374-.285.023-2.339-.264-3.77-.083-1.172.126-1.925.34-.92.757.233.097.557.218.92.354 1.322.492 2.904 1.467 2.473 1.876 1.177-.247 2.484-.407 3.791-.392 8.148 3.566 8.206 6.192 9.732 10.337.112-.157-.017-1.349.108-1.765.077-.4.829-.089 1.781 3.236.029.346-.078.768.081 4.12a17.38 17.38 0 0 1-.043 1.583c-.388 5.973-.613 6.851-1.898 1.562.816 15.566-.723 18.92-.244 34.883 1.76-3.174 1.321-8.786.958-23.403.423-.635.842-.932 1.27-1.587-.943 19.456-.849 9.842.015 20.865.211 2.698-.002 17.081 1.18 12.281.278-1.133.245-10.069.686-9.044.084.198.297 11.061.183 12.019-1.395 12.02-2.38-9.46-1.848 23.641.016.912.522 1.232.594 3.015.133 3.351-.453 3.393-.316 6.386s.923 7.145.201 11.646c-1.308 8.232-2.091-11.185-1.399-19.833-1.748-3.511-1.665 58.274-1.515 62.102.659 16.717.248-11.101.718-12.534.198-.595 2.731-.299 1.08-7.339-.491-2.082-1.121 6.622-1.398 1.428s.474-3.137.525-3.514c.178-1.293-.107-6.82-.002-7.537 1.604-11.028 4.047-10.017.455 4.601.818 6.367 2.106-8.247 2.661-.333.669 9.619-.486 16.64-.536 17.85-.608 14.495 1.064-2.219.531 15.486-.294 9.858-1.118-14.753-.998 7.759.102 18.843.672 8.667 1.985 10.035.307.324.676 10.648.549-3.411-.341-.396-.792-1.146-1.107-2.039.248-3.448 1.97-9.198 2.033-11.027.296-8.945-.602-8.513.461-13.788-1.161 3.767-.458-2.364-.7-4.665-.896-8.543-1.245 2.659-.065-16.517l-1.632 7.18-.055-6.902c1.205-3.432 1.063-15.652 2.271-4.586.36-13.307.104-18.686-.843-21.602-.181-.554-.252-2.554-.268-4.903-.268.444-1.093 1.013-1.194.642-.892-3.311.65-8.446 1.239-6.695l.078-3.403c.093-2.911.622 2.796.807.436.06-.778-.048-8.981.169-9.139 1.397-.989.369 12.51 1.222-14.597-1.277-.655-1.01 11.936-2.358 8.703-1.452-3.471.504-10.551-1.285-12.098.295-.575.54-.829.876-1.325-.779-10.967.718-11.112 1.052-14.462.654-6.506.583-36.416-.745-9.56l-.301-11.844c1.829-.601 1.934.283 1.942-4.831-.06-2.765-.256-7.577-4.239-13.512-2.788-3.743-3.535-5.933-8.362-6.987.959-.727-5.572-3.625-10.356-3.24-1.752.043-3.147.084-3.498.031-2.808-.431-.553-.919 3.498-1.213 4.05-.33 9.787 1.004 13.773 3.895 4.064 2.799 6.199 6.58 6.227 8.045 3.54 4.332 2.555 4.983 3.592 10.863.087.756.134 1.457.154 2.118.205 5.862.332 7.418-.529 15.461.858 5.737.856-10.984 1.252-15.461.086-1.57.219-1.94.47 0 .162 1.214.361 3.536.61 7.354 1.278 19.43 1.864 109.341 2.098 167.647.161 17.6-16.075 28.396-27.647 27.762l-12.272.04-154.097.072c-5.632-.027-48.155-.08-39.317-1.318 1.269-.176 19.559-.613 3.871-1.655 3.191.599-6.033.958-6.807 1.017-17.751 1.351-7.475 1.722-35.422 1.635zM497.53 218.64c36.474.212 9.678-.547 17.255-2.385l-14.027.026 3.674.33-6.902 2.029zM5.652 112.34l.506 4.371-.116 14.439-.347-1.706-.042-17.104zm835.745-17.937c.812-6.823-.652-6.207.004-15.272-1.083 1.111-2.142 2.344-3.211 3.514.178 6.899.591 8.467.346 15.962l1.037-2.618-.233-3.784c.968-1.923 1.131 10.052 2.059 2.221-.001-.008-.001-.016-.002-.024zm-.67-69.456c-.066-1.487-.847-5.31-3.115-8.229-2.163-2.989-5.393-4.669-6.223-4.764-2.86-.37 3.783 2.289 5.951 6.351 1.196 1.858 1.628 3.437 1.383 3.105-.352-.189-.956-2.941-5.595-6.159-.05.237-.26.35-.388.526 3.094 2.35 5.12 5.969 5.466 9.801.832-.305 1.696-.253 2.521-.631zM629.453 218.329c5.639.093 32.524-.579 23.76-1.399-2.579-.236-14.581.983-19.143.939-2.954-.028.357-.684-5.474-.433.257.286.417.602.873.891zm-10.575 3.774l17.612-.386c-4.285-.74-12.714-.261-13.209-1.298l4.799-.24 3.649.68c5.039-.569 1.987-.849 11.369-.693-5.673-1.578-6.726-2.41-22.792-.801 3.034-.856.178-3.614-8.727-1.621-1.666.369 5.291.6 5.371.659 1.07.724-2.791 1.191-1.642 1.875.515.309 4.76.301 5.394.732.293.21-3.743.81-1.824 1.093zm-11.623-3.661c1.805-.442-4.363-1.465-9.718-1.242-8.35.343 4.819 1.297 9.718 1.242zM5.652 112.308v.032c-.002-.021-.001-.027-.001-.032zm834.633-68.9c-.453-4.323-.4-10.722-1.109-10.25l.388-6.084.015-.189c-.214.018-.428.05-.64.066l-.003.123-.355 18.793c.567-.793 1.136-1.527 1.704-2.459zm-37.038-32.592c-7.952-.062-1.285.918-3.03 1.399s-8.83.107-7.997.794l14.304.045c-1.25-.742-2.122-1.499-3.293-2.238zM348.669 218.347c5.394.141 3.193.686 13.844.033h-.024c-10.135-.424-23.182-.779-34.367-.333 6.841.546 12.059.081 20.547.3zm490.646-105.079c.569 2.278 1.023-8.33.492-10.67-.864-3.787-1.359 7.2-.492 10.67zM130.78 222.111c-8.206 1.145 7.343 2.455 23.626 1.916 1.408-.049-9.104-.431-5.99-.655.315-.022 6.086.01 7.513-.151s-.072-.542 2.269-.701c4.107-.278 13.388.243 16.462-.124.404-.05-5.351-.562-5.712-.581-5.911-.307-11.606.359-12.519.362-4.701.023-3.991-.495-5.181-.617-2.241-.228-6.188.002-6.465-.015-7.134-.448 9.167-.327 11.368-.516 5.93-.51.44-.974 14.661-1.281 1.35-.028 17.515-.025-2.856-.578 40-1.308-20.099-.646-26.624-.371-3.009.129 1.546.61-.278.834-4.165.511-11.265.607-10.631 1.313 1.37 1.485 10.695.509 17.12.758-.674.326-.931.644-2.181.963 1.924-.43-13.987-.643-14.582-.559zm101.261-1.804c8.985.47 8.349-.533 16.581.033 7.259-.914-7.059-.834-8.727-.881-7.615-.216-7.44-1.189-15.232-.873 2.678.568 4.86 1.146 7.378 1.721zm-78.151-.311c6.009-.49-4.744-.466-5.18-.557-4.749-.966 27.451-.836 5.18.557zm510.564.789c3.054.041 1.116-.565 3.808-.747 2.697-.184 11.917.33 11.686-.05-.238-.384-17.133-1.342-.174-1.584-.575-.213-.381-.373-.659-.566l-14.026.007 7.64 1.838c-2.618.492-4.09-.133-4.229-.133-4.878.058-10.902 1.144-4.046 1.235zm-240.371-1.544c-.912 1.349 6.287-.166 9.242-.34s7.016.323 5.49-.259c-4.78-.393-14.633.449-14.732.6zm-143.228 1.013c7.531-.31 6.335-.636 15.549-.275l-1.071-.912c-7.318.007-6.804.883-15.271.543-1.389-.056 1.584-.759-4.681-.524l5.474 1.168zm37.326-1.179c-8.647.064-15.506 2.543.421 1.412 2.36-.169 6.083-1.46-.421-1.412zm266.504 1.831c14.711.074-2.001-.38-5.831-.813 34.246-.385-3.866.119-7.283-1.327-4.185.422-12.016 1.371-3.316 1.617 3.63.102 2.305-.33 2.523-.328 6.684.1 5.874.811 13.907.851zm-368.257-.525c.556-.018-.313-.422 1.452-.505s5.768.196 6.164-.054-7.629-.434-10.091-.248-2.542.968 2.475.807zm56.454.975c7.349-.306-4.669-1.84-6.267-1.827-14.043.099 6.683 1.334 6.267 1.827zm277.642 2.609c17.732-.895 4.761-2.5-6.347-3.43l-4.418.576c6.664-1.166 18.343-2.336-7.64-1.289 14.222.257 2.313.582 2.221.647-1.567 2.128 19.5 1.136 16.168 3.496zm-357.999-3.98c-7.718.017-27.782.34-18.421 1.091l18.421-1.091zm648-2.894c4.017-3.635 6.476-8.826 6.509-15.017l-.01-4.887c-.905 7.001-1.002 2.4-1.221.04-.295-3.204-.308 3.405-.35 4.847-.005.179-.013.282-.019.284-.107-.022-.202-.134-.287-.284-.384-.645-.561-2.056-.633 0-.076 1.112.01 3.358-1.312 7.039.632-2.336.812-4.721.583-7.039l-.203-2.126-.018 2.126c-.551 7.502-2.852 9.468-6.554 12.729 4.674-3.171.052 2.675-6.26 5.553-1.566.682.112.947 2.695.367 2.587-.533 5.804-2.407 7.098-3.651-.006.006-.012.013-.018.019zm-271.675 7.182c1.825-.259 3.495-.612 5.26-.911l5.775-.079c.238.233.437.476.714.7 2.536.071 1.548-.255 2.301-.284 10.806-.419 15.231-.372 23.697.365v-2.167l-5.728.203-3.039 1.16-6.584-.64-5.411.416c-8.786-1.998 11.182-.639 11.361-1.473.118-.537-19.992-.502-22.888-.135-.416.053 3.929 1.534-3.427.762-1.15-.123-1.555-3.311-9.488-.727-1.131.366 2.817 2.342 7.457 2.81zm73.018 1.146c-11.305-2.13 30.422.161 12.416-1.609 5.136-.975 4.183-.966-.992-1.834-.455-.077 3.12-.347 2.817-.381-4.84-.477-10.671-.221-10.71-1.088l-3.848.136c5.451.813-3.217 1.365-6.569 2.049-1.526.31 1.982.407.698.679-.476.099-5.375-.102-5.577.182-.416.641 2.661 1.512 7.878 1.996l3.887-.13zm-241.633-1.94c-1.924-1.038-9.636-1.329 5.181-1.839l-2.221-.611-7.458.056c-7.616 3.039-21.518-.384-12.614 1.762.972.234 6.899-.023 1.047.606.008.001.016.002.024.002 8.17-.188 9.199-.555 16.041.024zm54.685-.702c18.843-2.248-26.038-1.241-18.54-.657.674.055 20.008-.428 18.54.657zm-151.201 1.743c8.447.048 9.007-1.073 8.155-1.476s-6.702.001-7.457-.064c-2.46-.21 2.757-.346-.437-.633-1.057-.095-15.771-.49-16.445-.441-3.744.263 1.729 1.175.658 1.28-3.49.339-8.23-.137-9.242.345-2.181 1.026 6.655-.045 8.147-.063 4.503-.045 4.11.537 7.482.658s5.571-.076 8.544-.032c.989.015.166.421.595.426zm27.933-2.353c-8.823.852 12.66 1.8 15.208 1.603 7.498-.599-10.983-2.016-15.208-1.603zm281.91.057c-8.07.715 10.73 1.307 16.105 1.02-.997-.303-13.329-1.269-16.105-1.02zm-67.957 1.732c7.419-.211-2.419-1.786-8.607-1.759-3.628 1.024-.214.822 3.832.866 4.041.045-1.012 1.056 4.775.893zm-333.516-.518c1.6.018 27.395-.685 12.574-.988-1.13-.023-19.186.099-20.555.229-2.754.264 3.856.717 7.981.759zm297.936 1.979c3.927-.868 7.79-.855 4.18-1.887 9.921-.311 10.361 1.807 12.503 1.766 7.493-.148.394-1.668 5.094-2.16-10.929.459-7.795-.556-16.105-.622-1.865-.013-9.326.587-10.417.959s2.722 1.5 4.745 1.944zm-334.374-1.828c8.707.29 16.678-.893 4.602-1.084-5.891-.093-9.917.91-4.602 1.084zM840.969 11.431c.694 1.424 1.249 2.915 1.65 4.459-1.893-2.864-4.472-5.235-7.43-6.866 2.367 1.241 4.52 2.954 6.3 5.048-1.898-2.624-3.709-4.224-4.088-4.849-.429-.572.788-.403 3.556 2.195zM626.025 3.674c-2.698-.498-8.013 1.028-7.338 1.149 5.076.894 11.082-.461 7.338-1.149zm-.539 222.115c10.028.182 3.132-1.744-3.015-1.877 3.761.368-2.676 1.774 3.015 1.877zM701.518 3.886l2.817.627c-3.172-.292-3.722-.488-2.817-.627zM216.19 224.796c1.532.12 12.854.237 14.384.093 3.173-.305-5.656-1.169-10.853-.912-.575.027-5.054.699-3.507.819h-.024zM827.61 3.618c.018.025.004.044-.036.058.016-.019.015-.04.036-.058zM400.64.047c.061.042.094.083.087.123-.024-.039-.072-.08-.087-.123zM296.047 226.289c3.769 1.542 12.456.752 5.593-.027-.384-.04-4.679.033-5.593.027z" fill="#fff"/></svg>