<svg xmlns="http://www.w3.org/2000/svg" width="444" height="428" fill="none"><path fill="#FE41BC" d="M322.843 51.888q-.348 1.044-3.83.697t-5.573 0q-2.089.347-3.482 1.741-1.393 1.393-3.831 1.045l-2.438-.348q.175 1.045.348 2.089l.349 2.09-.697-1.393q-.696-1.394-3.483-.697-2.785.697-2.785 1.393v.697l1.393-.697 1.393-.696q.175.695.348 1.393l.349 1.393-1.742-.349q-1.741-.346-3.482 1.394l-1.742 1.741 2.787-1.393q2.786-1.392 3.482-.696t.348 2.437l-.348 1.742.697-1.742q.697-1.741 1.393-1.742h.697l-.697-.696q-.696-.697 0-1.741l.697-1.046v1.046q0 1.044 1.045 1.741 1.044.696.697 1.393-.176.348-.349.697l1.742.697q1.74.695 1.741 1.741v1.045l.349-1.045q.348-1.045 2.785-1.045t2.786-1.045 2.09-.696l1.742.348-.349-.697-.348-.697 4.179-.348q4.179-.348 4.179-1.393V59.2l1.045.349q.523.172 1.045.348l-.697-.697q-.696-.696-.348-1.742.35-1.044 1.393-1.044h1.045l-.348.696-.349.697 1.046-.697 1.044-.696v1.393q0 1.394 1.045 1.742a6.6 6.6 0 0 0 2.09.348h1.045l-.696-1.394 1.393.349 1.393.348-.696-1.044q-.698-1.046-2.09-.697-.697.173-1.393.348l.347-1.393q.35-1.393 2.439-1.393h2.09a269 269 0 0 0-1.393 1.393l1.044.348 1.045.348q-.173.523-.348 1.046l-.348 1.044 1.393-.348q1.393-.348 2.09.348l.696.697v-2.787l-1.393.349q-.696.173-1.393.348v-2.09l3.135.348 3.134.349-1.045 1.044q-1.045 1.046-.697 1.742l.349.697q.346-.523.696-1.045l.697-1.045.348 1.045q.348 1.045 3.134 1.045t3.831-1.394l1.045-1.393v3.483l1.045-.696q1.045-.698 1.741-3.134l.697-2.439h-1.741q-1.742 0-2.09-.696-.349-.696-3.135-.348-1.394.173-2.786.348v-1.394l-1.045.349q-1.045.348-2.437-.696-1.393-1.046-2.439-1.046h-1.045v1.393l-1.741-.347-1.742-.349v2.09l-.696-.348q-.696-.35-.349-1.393l.349-1.046h-9.056v1.393l-1.741-.696-1.742-.697zm18.458.697.697.348-2.09 1.045-2.09 1.045 1.393-1.394q1.394-1.392 2.09-1.044m-20.199 1.044h1.393q-.173.35-.348.697-.175.349-.348.697l-.349-.697zm30.648 0q.346.175.696.349.348.173.697.348l-.349.697-.348.696q-.173-.522-.349-1.044zm-39.703.697q-.173.697-.348 1.393l-.347 1.393 1.044-1.044q1.045-1.044 2.09-.349 1.045.698 2.437-.348l1.394-1.045v.697q0 .696-.697 1.393-.696.696-2.09.349l-1.393-.349v2.09l-1.044-.348q-1.046-.349-3.483 1.393-2.439 1.742-2.439 2.786v1.045h-2.09v-2.437q0-2.437 1.742-3.135l1.742-.697-1.394 1.393q-.695.697-1.393 1.394l2.09-.349q2.09-.347 2.089-2.438v-2.089l.697.348.697.349.347-.697zm14.976 0h1.044v1.393h-2.785l.348-.696q.348-.697 1.393-.697m16.368 0 1.045.349q.522.172 1.045.348l-.696.348q-.348.175-.697.348zm5.572.697q.35.173.697.348-.348-.175-.697-.348m-214.532 1.392q-.697.696-1.741.349l-1.045-.349.696 1.742.697 1.742-1.741-1.394q-1.742-1.392-5.921-.696-4.179.695-4.179 1.393v.697l1.393-.349q1.393-.348 2.089.349l.697.696-1.742 1.045-1.74 1.045 1.044 1.393 1.045 1.393.697-.695.696-.697-1.044-.349q-.523-.172-1.045-.348l.348-.696q.35-.697 1.393-.697h1.045v1.393l.349-.696q.347-.697 1.393-.349l1.044.349v-.697q0-.696-1.741-1.393l-1.742-.697 2.09-.697q1.045-.346 2.09-.696v2.09l1.393-.349 1.394-.347-1.394.696-1.393.697 1.393 2.437 1.394 2.439 1.044-1.393 1.046-1.394q.173.35.348.697l.347.697 1.046-.697 1.044-.697.349 1.045q.173.523.348 1.045l.348-1.393.349-1.393h-2.787v-1.394l2.09.348q2.09.35 2.437 2.09.349 1.742-1.044 2.09t-1.393 1.045v.697l2.785-2.09q2.786-2.09 4.527-.348 1.742 1.74 2.439 1.741h.696l-.348-1.045q-.348-1.044.697-1.741t3.482-.697q2.438 0 3.831 1.742t2.438 1.045l1.045-.697.348 1.045.349 1.045 1.393-1.045 1.393-1.045-.348 1.045-.348 1.045q.348-.175.697-.348.348-.175.697-.349v1.393l2.437-.696 2.438-.697v.697q0 .696 2.089 1.045 1.046.173 2.09.348v-2.09h2.09l-.697 1.045-.696 1.045h3.134q3.134 0 4.179 1.742 1.045 1.74 1.741 1.393l.697-.349v2.09h6.965l-.697.697q-.348.348-.696.697h1.392q1.394-.001 1.742 1.393l.348 1.393q.523-.521 1.045-1.045l1.045-1.044-.348 1.741-.349 1.742.349-.697q.348-.696 2.438-.349 2.089.348 2.786 1.394l.696 1.045-1.741-.349-1.741-.348v1.393h3.482v1.046q0 1.044 2.09 1.741 2.09.696 2.786.348.35-.173.697-.348l.348.696q.173.348.349.697-.523.173-1.046.348l-1.045.349h3.484q-.35.348-.697.696-.696.696-.349 1.742l.349 1.045 1.393-1.045 1.393-1.045-.347 1.394q-.349 1.392 1.393 2.088t2.089 2.787q.175 1.044.348 2.089l1.046-.696q.521-.35 1.044-.697l.349 1.393.347 1.393q.35-.173.697-.348.696-.349 1.741.697 1.045 1.044 1.045 2.09v1.044h2.09v-2.09h4.179v-1.392h-2.786v-3.482H221.5l.348.695q.173.349.349.697l-.697-.697q-.696-.694-2.786 0l-2.09.697 1.741-1.741 1.742-1.742h-2.09v-2.09l-1.393.349q-.696.172-1.393.348l.348-1.045.347-1.045-1.044-.349q-.523-.172-1.045-.348l.696-1.045.697-1.044-1.742.696-1.741.697v-1.393q0-1.394-4.527-4.529-4.528-3.133-4.528-4.179 0-1.045-5.572-3.134l-5.572-2.09.696-1.393.697-1.393h-1.742q-1.741 0-3.134-1.742-1.394-1.74-2.787-1.393t-2.088-1.045q-.697-1.392-2.439-1.045-.87.175-1.742.348v-2.09l-1.741.697-1.742.697v-2.787l-1.392.349-1.393.348V59.9l-1.045.347q-1.045.349-2.438-.696t-3.135-.349l-1.742.697.349-1.045.348-1.045-1.393.697-1.393.696q-.35-.695-.697-1.393-.696-1.393-13.583-1.741-12.886-.349-13.581.348m183.885.697 2.438.348q2.438.349 2.438 1.393 0 1.046-1.393 1.742l-1.393.697.697-1.393.696-1.394-1.741-.696zm-175.526.697.696 1.044q.35.523.697 1.046h-2.787q.35-.523.697-1.046zm-25.772 1.741v1.045h-5.573l.349 1.393q.173.697.348 1.393l-1.045-.696q-1.044-.698-5.224 0l-4.179.696 1.742.349q1.74.348 1.741 1.393 0 1.045-1.393 1.742-.697.348-1.393.696h1.393q1.393 0 2.437-2.09 1.045-2.09 1.742-2.09h.697l-.349.697-.348.697 1.044-.348q1.046-.349 2.091 1.044l1.045 1.394q.173-1.046.348-2.09.35-2.09 1.393-2.09h1.045v-1.393l.696.348q.697.35.348 1.742-.173.697-.348 1.394l2.787.347q1.392.176 2.785.348-.346-.87-.697-1.741-.695-1.741.349-2.437l1.045-.697h-2.786v-2.09h-2.089zm20.896-1.045 1.393.697 1.393.697-1.741.347q-.871.175-1.742.348l.349-1.044zm15.323 0 .349.697.348.697h-1.393l.347-.697q.176-.348.349-.697M134.78 59.55l1.045.349-1.394.347q-.697.175-1.393.348l.348-.696q.349-.696 1.394-.348m178.66-.348 1.046.348 1.044.349-1.393.696-1.393.697q-.175-.348-.348-.697l-.349-.696.697.347.696.348v-1.392m3.483 0h2.785v.697q0 .695-1.044 1.044l-1.045.349zm-167.864.697.696.696.697.697h-2.09l.348 1.044.349 1.045h-1.394l.697-1.741q.348-.87.697-1.741M291.5 60.943l-.349 1.044-1.044-.348q-1.045-.347-1.394.348l-.348.697h4.876l-.697-1.393-.697-1.393zm36.567-.349v.697l1.046-.348 1.044-.349-1.044-.348-1.046-.347zm-185.277 0 .696.697.697.696h-2.09q.174-.347.349-.696zm11.144 0 1.045.697 1.045.696h-2.09v-1.393m156.023.697 1.742.696 1.741.697q-.87-.348-1.741-.697-.872-.347-1.742-.696m36.22.696v.697l1.742-.348 1.741-.349-1.741-.348q-.871-.173-1.742-.348zm-214.531 0 1.393.697 1.393.697h-2.786v-1.394m28.557 0 1.045.697 1.045.697h-2.09v-1.394m-2.09.697.697.349.696.348-1.045 1.045q-.522.521-1.044 1.045l.347-1.394q.176-.696.349-1.393m149.755 0 1.045.697zM129.556 63.73l-.697-.348zm35.174-.348h1.045l-.348 1.045q-.35 1.044-1.393 1.045h-1.045l.348-1.045q.35-1.045 1.393-1.045m120.152 2.438v2.437h-1.044q-1.046 0-1.742 1.742-.697 1.741-2.787 1.393l-2.089-.347.348 2.089.349 2.09-1.742-.697-1.742-.697-.347 2.09q-.349 2.09-2.438 2.09h-2.09v1.393q0 1.393-2.089 1.74-2.09.35-2.09 2.09 0 1.743-1.742 2.09l-1.741.349.348.696q.173.349.349.697l-1.394.696q-1.392.697-2.089.349-.348-.173-.697-.349v1.394q0 1.392-1.393 2.089t-1.045 1.742l.349 1.045 1.044-.349q.523-.173 1.045-.348l-.696 1.045q-.697 1.046 0 2.438l.696 1.393-.348-1.393-.347-1.393q.87-.175 1.741-.348 1.742-.348 1.742-1.394t-1.394-2.09q-.696-.523-1.393-1.044l1.393-1.046q1.394-1.044 2.089-.696.348.173.697.349-.35.695-.697 1.393l-.696 1.393 1.74-.697q1.742-.697 2.439.348l.697 1.045-1.742.697q-1.741.695-1.394 2.09.35 1.391-.696 1.742-1.045.347-1.045 1.044v.696h2.786v-3.482l1.045.348 1.045.348-.348-1.044q-.348-1.046 1.393-2.09l1.741-1.045h-2.786v-2.786h1.393q1.392 0 2.089-1.046l.697-1.045v2.787l.697-.696q.697-.697 1.74-.349 1.045.347 1.742-.348l.697-.697-1.045.348q-1.046.349-2.09-.348-1.045-.696-.697-1.393.348-.696 2.09 0 .87.348 1.742.696l-.349-1.741-.348-1.742 1.741 1.045 1.742 1.045.348-1.393q.348-1.394 2.786-2.09 2.438-.697 2.787-1.741l.347-1.045-1.045.348-1.044.348.348-1.045.348-1.045h-2.437q-2.438.001-2.787-1.045l-.348-1.044 1.742.347q1.74.35 2.088-1.045l.349-1.393v3.483l2.438-1.393q2.438-1.394 3.482-.348l1.046 1.044V75.57q0-1.046-1.046-1.742-1.045-.697-2.088-.697h-1.046l.697 1.045.696 1.045-1.044-.348q-1.045-.348-1.742.348l-.696.697.696-2.09q.697-2.09 2.786-2.09h2.09v-4.179l1.741 1.045 1.742 1.045-1.045-1.045-1.045-1.045 1.045-1.045 1.045-1.045-1.393.349q-.696.173-1.393.348l1.044-1.393 1.045-1.394h-2.089v1.394l-1.742-.697-1.742-.697q.002 1.223.002 2.441m6.618-1.742q-.175-.346-.349-.696zm-109.704.697.696.696.697.697q-.697.173-1.393.348t-1.394.348l.697-1.044zm-63.037 1.393-.347-.697zm164.033 0 .697.696zl-.696-.697zm4.18-.697.697.697.697.696h-2.09l.348-.696zm5.921 1.045-1.045-1.045q.521.524 1.045 1.045m10.448-.696 1.045.349zq-.523-.175-1.045-.348.522.173 1.045.348m-195.727.696-1.044.348 1.044 2.439 1.046 2.437-1.046.348-1.044.349v-2.787h-1.393v2.787h2.09q2.088 0 2.437.695l.348.697.349-1.393q.173-.697.348-1.393l.348 1.045.348 1.044.697-.347q.697-.349.348-1.394l-.348-1.044.697.348q.348.174.696.349v-1.046q0-1.044-1.045-1.393-1.044-.348-2.437.697-.698.522-1.393 1.045V69.3q0-1.045 1.044-1.393l1.045-.349-1.045-.697q-1.044-.695-2.09-.347m8.01 1.741q-.695 1.046-1.392 2.09.698-.172 1.392-.348 1.394-.348 1.394-2.089v-1.741zm4.529-.347.347 1.741q.522-.176 1.045-.348 1.044-.348 1.045-1.394v-1.045l-1.045.349q-1.044.347-1.393-.349l-.348-.696zm-22.29-.349.349.696.348-.696.348-.697h-1.393zm88.46 0q.173.348.349.696zm111.445.349-.348 1.044 1.045-.697q1.045-.694 1.741 0l.697.697v-2.09h-1.394q-1.393 0-1.741 1.046m-16.717.347.349.697zl-.347-.696zm103.435 1.742q-.347 1.22-.696 2.438h1.045q1.045 0 1.741 2.09t1.742 2.438q.523.173 1.045.348l-1.045.696q-.523.35-1.045.697l2.437.349q2.438.347 2.786 1.393.35 1.044-.347 1.393-.348.175-.697.348.697-.173 1.393-.348l1.393-.349-.696 1.046-.697 1.045h1.046q1.044-.001 2.437 1.393 1.393 1.392 1.044 2.438l-.347 1.045h1.393q1.393 0 2.089 2.09t2.09 2.437l1.393.349-.696.348q-.35.173-.697.349l1.045 1.044q1.044 1.045.696 1.742t.349 1.393q.695.696 1.741.348l1.045-.348-.696 1.393q-.697 1.394.696 2.439 1.393 1.044 1.742 3.481.347 2.44 1.393 2.787 1.045.348 2.09 3.831t2.438 4.528q1.392 1.045 1.045 3.134-.348 2.09.696 2.786t1.394 4.527q.348 3.831 1.742 3.831h1.393q-.35 1.392-.697 2.786l-.696 2.786h2.089v4.875q0 4.876 1.393 5.921l1.393 1.045-1.393 1.742q-1.392 1.74 0 3.134 1.393 1.393.697 3.831t.696 3.134q1.393.696 1.046 2.786-.348 2.088-1.742 2.785l-1.393.697.696 1.045.697 1.044h-2.09l.697 2.439.696 2.437h-2.089v1.046q0 1.044 1.741 2.437l1.741 1.393-1.741 1.394q-1.74 1.393-1.741 2.088v.697q.521-.347 1.044-.697.523-.346 1.045-.696l.349 1.045q.173.523.348 1.045h-2.09l.697 1.741q.696 1.742-.697 4.529l-1.393 2.785h2.786l-2.089.697q-2.09.697-1.741 2.438t-.349 3.134l-.697 1.393h2.091l-1.393.349q-1.393.348-1.393 3.134v2.786l-.697-.348-.696-.348v1.393q0 1.393-1.393 2.09t-.697 2.437q.696 1.742-1.393 2.786l-2.089 1.045 1.044 1.045q1.046 1.045 2.787 1.045 1.742 0 2.089 1.045l.349 1.045-.349-1.742-.348-1.741q.871.348 1.742.696 1.741.696 3.134-1.393t1.393-2.787v-.696q-.349.173-.697.349l-.696.347.696-1.044q.697-1.045 0-2.438-.696-1.393 0-3.482l.697-2.09 1.393.697 1.394.696-1.045-3.483-1.046-3.482q.871.175 1.742.348l1.742.349v-1.393h-2.09v-2.09h2.787q-.35-1.393-.697-2.786l-.697-2.786.697.348q.348.175.697.349.173-.523.348-1.045.347-1.045-.348-1.393l-.697-.349h2.09l-.349-2.785q-.348-2.787.349-4.18.695-1.393 0-2.785l-.697-1.394h2.09l-.697-1.741q-.696-1.742 0-2.786l.697-1.045q-.871-.173-1.742-.349l-1.741-.347q.173-.35.348-.697.348-.697 2.09-.349l1.742.349-.349-1.393-.348-1.394-1.045.349-1.045.348 1.045-1.742q1.044-1.741-.348-2.786l-1.393-1.044q.346-.174.696-.349.697-.348.348-1.393l-.348-1.045 1.045-.348q.521-.174 1.045-.349l-.697-1.393q-.696-1.393 0-4.179.697-2.786.348-3.83-.348-1.046-1.393-1.046h-1.044q.346-.174.696-.347l.697-.348-.697-.349-.696-.348q.346-.696.696-1.393.697-1.394-.696-4.179-1.393-2.787-.697-4.18.348-.696.697-1.393h-.697q-.696 0-1.393-1.742l-.697-1.742-.697.349-.697.348q.35-.523.697-1.045l.697-1.045-.697-.348q-.696-.349-.697-1.045v-.697l.697.349.697.348-1.045-2.437q-1.045-2.438-.696-3.831l.347-1.393h-1.393l.348-1.046q.348-1.044-.697-1.741-1.045-.696-1.393-3.482-.347-2.787-1.742-4.18-1.392-1.392-1.044-2.09l.348-.696-1.393-.348-1.392-.349a456 456 0 0 1 1.392-1.393l-1.045-.348-1.045-.348.697-1.045.695-1.045-1.044-.348q-1.046-.348-1.046-2.09 0-1.74-1.741-2.786-1.74-1.044-1.74-3.135v-2.09q-.697.176-1.394.349-.696.175-1.393.348l.697-1.393.696-1.393-2.088-.348q-2.09-.348-2.09-1.045v-.697h2.786l-.696-1.045q-.698-1.044-1.742-.697l-1.045.349q.175-.523.348-1.046.349-1.044-1.045-1.74l-1.393-.697q.348-.347.696-.697.35-.346.697-.696l-2.09-1.045q-2.089-1.044-2.437-2.786-.175-.87-.348-1.741-.523.348-1.046.697l-1.044.696-.349-1.742-.347-1.74q-.697.173-1.394.348-1.392.349-2.437-.696l-1.045-1.045.697-.696.697-.697-1.046-1.045q-1.044-1.044-1.741-.696-.348.175-.697.348l-.697-1.393q-.695-1.393-1.741-1.393-1.047-.001-1.744 2.437m-291.15-1.393q-.348-.173-.696-.349zm6.965 1.74v1.394q.522-.173 1.045-.349l1.045-.347-1.045-1.045-1.045-1.045zm195.377 0q.348 1.395 1.394 1.394h1.045l-1.393-1.393-1.394-1.393q.175.697.348 1.393m-204.78 0-.348.698h2.09l-.697-.697-.697-.697zm7.314 0v.698l-1.045-.349q-1.046-.348-4.527 1.742-1.742 1.043-3.483 2.09l3.483-.349 3.481-.348q-.346-.523-.696-1.045l-.697-1.045h2.09q2.09 0 2.439-1.045l.348-1.044H98.21zm80.101 0-.697-.695zm94.379 1.394-.347 1.393q.347-.173.696-.347.697-.349.348-1.394l-.348-1.045q-.173.698-.349 1.393m-183.884.697-.348.695q.175-.346.349-.695m25.772 0 .349.695q-.174-.346-.349-.695m174.134-.349-1.045.349 1.045 1.044q1.044 1.046 3.134 0l2.089-1.044-2.089-.349q-2.09-.346-3.134 0M83.933 73.83l-.349-.697zm1.392 0 .349-.697zm297.768 0v.697l1.045-.349 1.045-.348-1.045-.349-1.045-.348zm-282.443 2.09.347 2.089.697-1.742.697-1.74-1.045-.349-1.045-.348zm-6.617-.697v.697l1.044-.349q.523-.173 1.045-.348l-1.045-.348-1.044-.348zm103.783.697.696.696zM89.853 78.008v1.394h1.393l-.347-1.046q-.176-.521-.349-1.044h2.786l-1.741-.349q-.87-.175-1.742-.348zm8.01-.697-.347.697 1.044-.347q.523-.176 1.045-.349l-.696-.348-.697-.349zm168.214 1.045v1.046h.696q.695 0 1.044-1.046.176-.521.349-1.044h-2.089zm12.537-.348q2.09.697 2.437 1.741l.348 1.046-1.393.347q-1.394.35-2.439-.347-.521-.35-1.044-.697l-.349 1.393-.347 1.393q-.35-.173-.697-.348-.696-.349-2.09 1.393-1.395 1.743-2.438 1.742h-1.045v-2.09h2.09l-1.045-.349q-1.044-.347-.696-1.741.347-1.394 2.09-2.089l1.741-.697-1.045 1.742-1.045 1.741h2.786l-.347-.697q-.35-.695 1.045-2.437 1.393-1.743 3.483-1.046m6.617.348-.349 1.046q.696-.176 1.394-.349 1.392-.348 1.393-1.045v-.697h-1.045q-1.045 0-1.393 1.045m-20.548.349q.35.346.697.697-.348-.35-.697-.697m-61.991 0 1.044 1.044 1.045 1.046h-4.179l1.045-1.046zm-120.85 2.09q-.346.696-1.392.347l-1.045-.347v1.393h2.786l-.348 1.044-.349 1.046 1.742-.697 1.742-.697-.697 1.394-.697 1.393 2.439-.349q1.22-.173 2.437-.348l-3.135-2.437q-1.567-1.22-3.134-2.439zm1.046 0q.174.346.347.696l.349.697H82.19q.174-.349.348-.697.174-.35.35-.696m194.333 1.392.696.696zm-199.906.696q0 .698 1.394 1.046.697.173 1.393.348v-.697q0-.695-1.393-1.044-.697-.176-1.394-.349zm182.144 0-.348.697zM73.833 84.277l.697.696q-.35-.347-.697-.696m2.786.348.697.348zl-.697-.348q.35.173.697.348m190.154.348 1.741 1.045 1.742 1.045-1.045.697-1.045.697-.696-1.045-.697-1.045.348 1.045q.173.522.349 1.045h-2.787l1.045-1.742zM72.788 88.108q-.347 1.044-2.438 1.393l-2.089.348.348.697q.347.696 2.787 1.045l2.437.348-.349-1.045-.347-1.045h.697q.698 0 3.134.349 2.439.347 2.438 1.044v.697-2.09l1.045.697q1.046.696 2.439 0 1.392-.697 1.044-1.742l-.348-1.045-1.394.697q-1.392.696-2.437-.349l-1.045-1.044.348 1.044.349 1.046h-2.09l.348-.697.349-.697-2.09.697-2.09.697-.349-1.046-.347-1.044q-.176.522-.35 1.044m-5.92.348.696.697zl-.697-.697zm8.01 3.832q.347 1.044-.348 1.393l-.697.348.697.348q.695.349 3.483-.348l2.785-.697-3.135-1.044-3.134-1.046zm180.75 2.437.697.697zl-.697-.696q.35.347.697.696m-36.22.697.349.696.348.697-.697.348-.696.348q.173-.522.349-1.045zm33.434 6.617-.697 1.045h2.09l-.348-1.045-.349-1.045zm5.92.347.349 1.393.696-1.393.697-1.393h-2.09zm158.462 12.539.697.347zm-366.725 4.527 1.045 1.044H50.15v2.09l-.349-1.044-.348-1.046-1.045.697q-1.045.696-1.045 1.393v.697h2.786a1516 1516 0 0 0-2.786 3.483l1.74.348q1.741.348 2.788-.696l1.044-1.045-.696 1.741-.697 1.742.349-.697.348-.696.697.696q.347.35.696.697-2.264-.175-4.528-.348l-4.527-.349v1.394l1.742-.349 1.741-.348q-.172.523-.348 1.045-.348 1.044-2.089 1.393l-1.742.348 2.09 1.393q1.044.698 2.09 1.394l-2.786.697q-2.788.697-3.483 2.785-.347 1.046-.697 2.09l1.742.349 1.742.348h-1.394v2.089l-.696-.347-.697-.349.697 1.742q.696 1.74-.697 2.785t-1.045 1.742q.348.696 2.786.349l2.437-.349v2.09H42.49l.347 1.045.349 1.045-1.045.348-1.045.348.697 1.045q.695 1.046-1.045 2.787l-1.742 1.742H40.4l-.697 2.785q-.695 2.786-1.393 2.786h-.695l.695.348q.697.348.697 2.09t-1.045 2.089-.347 2.787q.694 2.438 0 3.83l-.697 1.394 1.393.348 1.393.349-1.393 1.044q-1.393 1.045-1.393 2.09v1.045l1.393-.347 1.393-.349v.697q0 .697-1.393 1.393l-1.393.697H40.4l-1.045 2.09-1.045 2.089 1.393-1.045q1.395-1.045 2.09-.696.696.347.697 1.044 0 .697-1.742 1.393-1.74.697-1.393 2.09.175.696.348 1.394H38.31v2.09h1.393l-.348 1.393q-.348 1.393.697 2.088 1.045.698.348 3.483l-.697 2.787h2.09l-1.045 1.393-1.045 1.393 1.393 1.045q1.393 1.045.697 2.09-.347.522-.697 1.045l.697-.349.697-.347v3.482q0 3.482 1.393 4.527l1.393 1.045q-.349.175-.697.348-.696.349 0 3.831l.697 3.482.696-.696.697-.697.697.697.695.696q-.521.35-1.044.697l-1.046.697q.523.173 1.046.348 1.044.348 1.044 1.742v1.393h2.09l-.697 1.394-.696 1.393h1.393l-.348 1.044-.349 1.045h1.394v1.742q0 1.74 2.438 7.314 2.437 5.571 3.483 6.269 1.045.695 2.088 3.831 1.046 3.133 1.742 3.134.698 0 2.787 5.223 2.09 5.224 4.527 7.663t2.09 3.134l-.348.696h2.089l-.347 1.046-.348 1.044h1.044q1.045 0 1.393 2.09t3.135 3.484q2.786 1.391 4.18-.697 1.392-2.09 1.044-3.483-.349-1.393-2.437-3.831-2.091-2.437-3.135-2.437h-1.046q.176-.523.349-1.045.348-1.045-.696-1.741-1.046-.697-1.394-2.439-.349-1.741-1.393-1.741H71.05v-2.09l-1.394.696-1.393.697 1.045-1.393 1.045-1.394-1.045-.347q-1.045-.349-1.045-1.741v-1.394l-1.045.348-1.045.349.349-1.393.348-1.394h-2.09l.696-1.044q.698-1.045-1.393-3.136l-2.088-2.088.696-.697.697-.697q-.523-.175-1.046-.348-1.044-.349-1.044-1.393v-1.046h-2.09l.348-1.741q.348-1.741-1.045-3.134t-1.393-2.786v-1.393h-1.045q-1.044 0-1.393-4.179-.348-4.18-1.742-4.179h-1.393l1.045-1.045 1.045-1.045h-.697q-.696 0-1.045-3.831t-1.393-4.527q-1.045-.697-1.045-4.528t-1.045-4.527l-1.045-.696 1.045-.697 1.045-.697-1.393-1.393-1.393-1.393 1.044-.349q.523-.173 1.046-.348l-.697-.348q-.696-.349-.349-1.393l.349-1.046h-1.393l.349-1.044q.173-.523.348-1.045h-1.394v-2.09h1.394l-1.394-1.393q-1.392-1.394-1.044-2.09l.348-.697.696.697q.35.347.697.697v-2.787q0-2.786-1.393-4.179l-1.392-1.393 1.044.348 1.045.348v-11.841h-1.393l.697-1.741q.694-1.742 0-2.439l-.697-.696 1.045-1.045q1.044-1.045.697-5.224-.173-2.091-.35-4.179h1.395v-2.438q0-2.437-1.742-4.179l-1.742-1.742 2.09.349 2.09.348-1.393-2.786.697.696.695.697.349-.697q.348-.697-.697-1.741-.521-.523-1.045-1.045h1.045q1.045 0 1.393-1.393l.348-1.393-2.088.347q-1.046.176-2.09.349l.348 1.393.347 1.393-1.044-.347q-1.045-.349-1.045-1.742t3.482-1.741l3.482-.349-1.044-1.393-1.045-1.393q.696-.175 1.393-.348 1.393-.348 2.09-4.18t-.697-4.179q-1.393-.348-2.438.697l-1.045 1.045-.348-1.393-.348-1.393 3.83-.349q3.832-.348 5.225-3.482t1.045-4.528q-.348-1.393-4.18-2.785l-3.83-1.394q.523.517 1.045 1.041m4.527 6.617.349.696.347.697-1.045.349-1.044.347.696-1.044q.35-.523.697-1.045m-11.841 11.84 1.045 1.045 1.045 1.045-.348-.696q-.348-.697-1.742-.349l-1.393.349.697-.697zm4.18 0h2.089v2.09l-1.044-1.045q-.524-.521-1.045-1.045m-3.483 4.18.348.697.348.696h-1.393l.348-.696zm381.003 5.572q.697.175 1.394.348.696.175 1.393.348l-1.045.349q-1.045.347-1.393-.349zm3.483 2.787q.35.347.696.696l.697.697-.697-.697zm-385.183 4.178.697.349zm2.786 0 .349.697.348.696h-1.393l.349-.696zm-2.088 5.573.696.348zm-3.484 2.089h1.394l-.349.697-.348.697-.348-.697zm-1.393 4.876q.522.175 1.045.348l1.045.349-.348.696-.349.697-.697-1.045q-.346-.523-.696-1.045m385.183 0h2.09v1.393l-1.045-.696zm2.09 4.876.696.697zm-1.394.697.349.695q.173.35.348.697h-1.393l.348-.697zm.697 2.785.697.349zm2.09 3.483q.173.523.348 1.045l.348 1.045h-1.394l.349-1.045zm-386.576.697-.348.697zm-.697 11.84.349 1.394q.173.696.348 1.393h-1.394l.349-1.393zm380.307 3.484.349.697q.348.695 1.393.348l1.044-.348-.347 1.393-.348 1.393zm2.09 6.268q.173.349.349.697.348.696-1.742 2.785l-2.089 2.09-.349-1.045-.348-1.045h1.045q1.045 0 2.089-1.741zm-3.483.697.697.348.696.348-.696-.348zm-2.089 4.875h1.393v2.09zm6.268.349q.35.173.697.348zl-.696-.349zm-4.179 1.045q.523.346 1.045.696l1.045.697-2.438 1.393-2.438 1.393v-.696q0-.696 1.394-1.046 1.392-.347 1.393-1.393zm-3.482 5.572-1.393 2.786q-.175-.522-.348-1.045l-.349-1.045.697.349q.348.175.697.348l.347-.697q.175-.347.349-.696m3.482 4.876.697.696zm-7.661 2.786q-.697 2.786-2.09 3.134l-1.394.349h2.091q-.35 1.741-.697 3.482-.696 3.482-2.09 3.831t-2.088-.697q-.35-.523-.697-1.045l.348 2.09q.173 1.045.349 2.09-.523-.175-1.046-.348-1.044-.349-1.741.348-.696.697 0 2.089.697 1.394-.349 3.831-.521 1.218-1.045 2.437h2.787v1.394h-2.089q-2.09 0-2.439 1.045-.347 1.044-1.393 1.044h-1.044l.696 1.742.697 1.741 2.089-2.09 2.09-2.088-.697 1.044-.697 1.045 1.394-.348 1.393-.348v3.483h1.045q1.044 0 1.742-1.742.695-1.74-.697-2.438l-1.393-.696 2.437-.697q2.438-.696 3.135-2.09.696-1.392.696-3.482t-.696-2.439q-.35-.173-.697-.348h1.393q1.394 0 2.786-1.393 1.394-1.393 1.742-4.179l.348-2.786-1.045.348-1.045.349v-2.09h4.18l-.348-1.045q-.348-1.046.697-2.437 1.044-1.393.696-2.439-.173-.523-.349-1.045l-1.044.697-1.045.697q-.175-.697-.348-1.394-.348-1.393-2.09-1.393-1.743 0-2.438 2.787m2.785-2.09.697.697zm-.696 2.786 1.393.348 1.393.349-1.393.348q-.697.173-1.393.349v-1.394m-1.742 5.572-.348.697q.173-.35.348-.697m-5.571 1.394q-.174.346-.349.696l1.045.348 1.045.349-.697-1.045q-.347-.523-.696-1.045zm3.134 0h1.044q1.045 0 1.394 1.044.175.523.348 1.046l-1.393-1.046zm2.09 2.785q.696 0 1.044 1.394.348 1.392-1.044 2.089l-1.393.697.347-2.09q.348-2.09 1.046-2.09m-360.805.697 1.045.697zm2.787 0 .696.697zm357.669.697-.348-.697zm-4.18 3.482 1.045.697h-3.483l.697-.697q.698-.696 1.741 0m-8.357 4.528q.347 1.741-.697 2.786l-1.045 1.045 1.742-1.393q1.74-1.393 1.741-2.786v-1.393h-2.09zm8.706-1.741.697.696zm.348 6.617-1.045-.348zm-8.01 4.876q-.347.522-.697 1.045l-.696-.697-.697-.697-.696.697q-.696.697-.349 1.393.348.697 2.091.348 1.741-.348 2.437.697.347.523.697 1.045.521-.522 1.044-1.045 1.045-1.045.697-2.09-.175-.522-.348-1.045l-1.393 1.045-1.393 1.045v-2.787zm-5.572 3.134v1.393h.697q.695 0 1.044-1.045l.349-1.045-1.045-.348-1.045-.349zm3.134 1.741-1.045 1.741 2.09-.696 2.09-.697q-.523-.521-1.046-1.045l-1.045-1.045q-.521.872-1.044 1.742m-5.223 1.394q-.697.521-1.393 1.044.521.523 1.045 1.045 1.044 1.046 0 2.439-.523.695-1.045 1.393l2.785-.349q1.393-.173 2.786-.348l-.348-.696-.348-.697h1.394l-.349-1.393-.348-1.393q-.696.175-1.393.348l-1.394.349.697-1.045.697-1.045-.697-.349q-.696-.348-2.089.697m5.92.695-.349 1.046q.871-.176 1.742-.349l1.741-.348-1.392-.697-1.394-.696zm-3.134 1.046h.696v2.089l-1.045-.348q-.522-.175-1.045-.348l.349-.697q.349-.696 1.045-.696m-7.315 2.089-.347.697h2.09l-.697-.697-.697-.696q-.173.348-.349.696m10.449.697.348 1.393.696-1.393q.35-.696.697-1.393h-2.09zm-10.796 1.392.696.697zl-.697-.696zm1.044 1.742q-.348 1.742-1.044 1.742h-.697l.348.696.349.697h-3.484l4.528.348q4.527.348 4.875 1.045l.349.697 1.393-2.787-1.045.348q-1.045.348-1.741-.695-.697-1.046-2.09-.349l-1.393.696.696-1.393q.697-1.393 0-2.088-.348-.35-.696-.697zm3.484-.348q-.175.348-.349.696.523-.173 1.045-.348t1.045-.348l-.697-.349-.696-.348zm3.134.696-1.394 1.394h1.045q1.045 0 2.09-1.045l1.045-1.045-.696-.349q-.698-.348-2.09 1.045m-11.493 5.572-.349.697 1.045-.348 1.045-.349-.697-.347q-.347-.176-.696-.349zm6.268.349q-.173.522-.348 1.045.175-.348.348-.697.348-.697 1.394-.348l1.045.348v-1.393h-1.045q-1.046 0-1.394 1.045m-2.09 2.786-.347 1.045h1.045q1.045 0 1.393-1.045l.349-1.045h-1.045q-1.046 0-1.395 1.045m-32.04 20.548.348.696zm1.742 1.741q-1.394 1.045-2.438.348l-1.045-.696v.696q0 .697 1.045 1.394 1.045.696 1.742 0 .696-.696 1.742-.349 1.044.348 1.74-.696l.697-1.045-1.045-.349q-1.046-.348-2.438.697m-1.394 3.135q-1.393.697-1.393 2.089v1.394h-2.438q-2.437 0-3.135 1.74l-.696 1.741 1.393-.347q1.394-.35 2.437-1.742l1.045-1.393-.348 3.134-.348 3.134q.348-.35.696-.697l.697-.696.697.696q.346.349.696.697v-1.393l2.438.696 2.437.697-.347-1.393q-.348-1.393-3.831-.697l-3.483.697.349-1.045q.347-1.045 2.437-1.045h2.09q-.173-.523-.349-1.045l-.347-1.045h1.393l-1.046-.696q-.521-.35-1.044-.697l1.393-1.393 1.393-1.394-.696-.348q-.696-.346-2.09.351m-.696 2.786q.175.348.348.697.175.346.348.696h-1.393l.349-.696zm5.572 1.393-1.393 1.393q1.044-.173 2.09-.349 2.09-.346 2.089-1.393v-1.044h-.697q-.696 0-2.089 1.393m-14.627 0 .697.697zm-2.09 5.572q-2.089 2.09-3.134 1.742-.521-.176-1.045-.348v2.089h2.09q2.09 0 3.831-2.089 1.74-2.09 2.786-1.393l1.045.696.697-1.393.696-1.393h-2.437q-2.438-.001-4.529 2.089m-235.776 1.742-.348 1.74q-.523-.173-1.045-.348-.522-.173-1.045-.348l1.394 3.134q1.392 3.135 2.437 3.134t2.09 1.742q1.045 1.74 2.437 1.393.697-.173 1.393-.348.175.87.348 1.741.347 1.742 1.742 2.787 1.393 1.044 2.785.347l1.394-.696 1.045 2.089q1.044 2.09 3.134 1.393t2.437 0q.175.348.348.697l-.696.348-.697.349h2.787v1.392h-2.09l1.045 1.393 1.045 1.393q.697-.695 1.393-1.393l1.394-1.393.347 2.437q.35 2.439 2.439 3.483t2.437 2.438l.349 1.394 1.045-.349q1.044-.348 2.785 1.393t3.483 1.742h1.742v1.393h-2.09l.348.697q.348.696 1.742.348 1.392-.349 3.481.697 2.091 1.045 2.091 1.741v.697l.696-.348.697-.349.697 1.393q.695 1.394 3.831 1.742 3.133.348 3.134 1.742v1.393h1.045q1.046 0 2.437 1.741 1.394 1.742 2.787 1.046.696-.35 1.393-.697l-.696.348q-.697.348-.348 1.393.173.522.348 1.045l.348-.696q.349-.697 1.393-.697h1.045v2.09l.697-.697q.696-.696 2.089-.348t1.393 2.09v1.741h1.393q1.394 0 1.742 1.045.175.522.348 1.045l.697-1.045q.697-1.044 2.089-.696.698.173 1.393.348l-1.393.696-1.392.697q1.043.697 2.09 1.393 2.089 1.394 4.178 1.045 2.09-.348 2.786 1.393l.697 1.742 1.393-.696q1.393-.697 2.09-.349.346.174.696.349l-.696.348-.697.348.348.697q.348.695 2.439 0l2.088-.697v2.787a1264 1264 0 0 1 3.483-1.393l-.696 1.045-.697 1.045h3.135q3.135 0 4.179 1.741t2.438 1.046l1.394-.697v1.044q0 1.045 1.044 1.394t3.831-1.045l2.786-1.393q.175.348.348.697.348.695-.696 1.74-1.046 1.045-2.09.697l-1.045-.349v.697q0 .696 2.438 1.045t2.786-.348l.348-.697v2.09h2.09l-1.393-4.528q-1.393-4.527-5.224-6.268t-4.527-1.394l-.697.349.697 1.045.696 1.045-1.393-1.394q-1.394-1.392-2.437-.696l-1.046.696v-1.393q0-1.393-2.785-2.786-2.787-1.393-4.179-1.044-1.393.348-1.742-.697l-.348-1.045-2.09.696-2.09.697 1.046-1.045 1.044-1.045-1.741.349-1.742.348V361.5l-1.392.349q-1.394.348-4.876-2.09t-4.527-2.089q-.523.173-1.045.348v-.697q0-.695-3.482-1.741-3.483-1.045-3.483-1.742v-.696h-4.876l1.045-.697 1.045-.697h-1.045q-1.044 0-1.393-1.045-.348-1.045-1.742-.696-.695.175-1.393.348v-2.786h-7.662l.696-.697q.697-.696.349-1.742-.348-1.045-1.742-1.045h-1.393v-1.393l-.348.697-.349.696-.696-.696q-.696-.697-1.742-.348l-1.044.348.347-1.394q.349-1.393-.347-2.088-.698-.697-3.483-1.046l-2.787-.347 1.046-.697q.522-.347 1.044-.697h-1.741q-1.742 0-3.135-1.74-1.394-1.742-2.437-1.045l-1.046.697q-.521-.872-1.044-1.742-1.046-1.742-2.438-1.393-1.392.348-2.09-.349-.698-.695 0-1.741l.697-1.045-2.089.696-2.09.697-.349-1.393q-.347-1.394-1.044-1.394h-.697l.348-.696.349-.697h-1.742q-1.742 0-2.786-2.089t-3.482-2.09h-2.439v-1.393h2.09v-2.09l-1.044.349q-1.046.348-1.742-.697l-.697-1.045-.696.696-.697.697q-.175-.523-.348-1.045-.348-1.045.348-1.741l.697-.697q-.87.175-1.742.348-1.741.349-2.09-.348l-.348-.696.697-.349.696-.348-1.045-.349q-1.045-.347-1.044-1.741 0-1.392-1.742-1.742l-1.742-.348q-.172.871-.347 1.742m242.742.347v.697q-1.218-.175-2.438-.348-2.438-.349-3.482 1.393l-1.045 1.741q2.96-.695 5.921-1.393l5.92-1.393q-.175-.348-.348-.697-.348-.696-2.438-.696h-2.09zm-242.393 0h1.393l-.349.697-.348.696q-.173-.347-.349-.696zm229.856 1.045.696.348zm13.581 1.394-.347 1.044 1.044-.696 1.045-.697-.696-.348-.697-.349q-.173.523-.349 1.046m-15.671 1.393q-1.394 1.046-1.742 3.482-.173 1.219-.348 2.438l1.741-2.786q1.741-2.786 2.787-2.437l1.045.348q-.174.35-.349.696l-.348.697 1.045-1.045q1.045-1.045 2.437-.696.698.173 1.394.348l-3.135-1.045q-3.134-1.046-4.527 0m12.537-.697q-.695.349-.347 1.742l.347 1.393 1.046-1.045 1.044-1.045-.696-.697q-.697-.697-1.394-.348m-3.83 5.224-1.045 1.393 2.438-1.045 2.437-1.044-1.393-.349q-1.394-.348-2.437 1.045m-16.02 0-.349.697h2.09v.696q0 .696-2.089 1.046l-2.09.347.348.697q.349.695 1.393 1.044 1.046.349 2.09-1.393 1.046-1.742 3.135-.695l2.09 1.044-1.046-1.393q-1.044-1.393-3.134-2.09t-2.438 0m8.009 0 .696.697zl-.696-.696zm-5.224 4.179-.348.697.697-.349.696-.348.349 1.394.348 1.393.348-1.393q.348-1.394-.696-1.742-1.046-.349-1.394.348m9.055 0 .348.697.349-.697q.173-.35.348-.696h-1.393q.175.346.348.696m-17.762 1.394-.696 1.393h1.393v-2.787q-.347.697-.697 1.394m3.483 1.044.697 2.438.696-1.394.697-1.393h-1.045q-1.044.001-1.393-1.045l-.347-1.044zm8.708-.349q.347.697-1.046 2.439l-1.393 1.741 1.045-.348q1.045-.348 1.394-1.742.347-1.393 1.393-1.393h1.044l-1.392-.697-1.393-.696zm-5.574 1.046-.348 1.044 1.394.349 1.393.348-1.046-1.394-1.044-1.393zm-208.611.347q.348.35.697.697-.35-.347-.697-.697m199.557.697q.348 1.394-.697 1.742l-1.045.348 1.393 1.393 1.394 1.394 1.044-1.394q.523-.695 1.046-1.393l-1.046.696q-.521.35-1.044.697l-.349-.697-.347-.696 2.089-.697q2.09-.695 2.09-1.393 0-.695-2.439-1.044-1.219-.176-2.437-.349zm-194.681 2.439v1.044h1.393l-.696-1.044-.697-1.046zm205.128-.349q-.347.697-2.785.349l-2.437-.349v.696q0 .697.695 1.393.697.696 2.786.349 2.09-.348 2.09-1.742v-1.393q-.173.348-.349.697m-18.108 1.393q-.176.348-.349.696l.696.349q.349.173.697.348l-.697 1.045q-.695 1.045-1.741 1.045h-1.045q.175.522.348 1.045l.349 1.044 1.742-1.393q1.74-1.392 1.74-2.437v-1.045h3.483l-2.437-.696q-2.44-.697-2.786-.001m4.874 2.09.348.696-1.393.349q-.697.173-1.393.348l1.393.348 1.393.348.349-1.393.348-1.393h-1.393q.175.348.348.697m-175.874 1.393.349.696zm161.248 1.393-1.045 1.393q.697.173 1.393.348.697.173 1.393.349-.173-.872-.348-1.742t-.348-1.742q-.524.697-1.045 1.394m5.223.349-.696 1.044 1.044-.348q.523-.173 1.045-.349-.173-.346-.347-.696l-.349-.697zm5.224.695-.348 1.742q.349-.174.696-.349.696-.347.349-1.741l-.349-1.393q-.172.871-.348 1.741m6.269 1.393q-.173.523-.349 1.046h1.394q-.175-.523-.348-1.046l-.349-1.044zm-18.11 1.742q-2.437 1.394-2.437 2.438v1.045l-1.393-.348q-1.393-.348-2.787 1.045-1.392 1.392-1.393 2.089v.697l1.045-.697q1.045-.696 3.135-.348t2.089 3.134v2.786l2.438-.697 2.437-.696q-.346-.175-.696-.349l-.697-.348.697-1.393.696-1.394h-1.74q-1.742 0-2.089-1.044l-.349-1.046h2.09v-1.393l2.786.349q2.786.348 3.134-.349l.348-.696-1.393-.349-1.393-.348 2.089-.697q2.09-.696 2.09-1.393v-.696l-1.742.696-1.741.697q-.173-.523-.349-1.045-.348-1.045-1.393-1.045-1.043.003-3.482 1.395m9.752-.696q.175.347.348.696zm4.179.696q-.349.697-1.393.348-.523-.173-1.045-.348v2.787l2.09-1.046 2.09-1.044-.697-.697-.696-.696zm-11.493.697h.696l-.348 1.044q-.349 1.045-1.741.697-.697-.173-1.393-.348l1.044-.697q1.046-.696 1.742-.696m-4.179 2.089q.35.173.697.348.346.175.697.349-.524.348-1.046.696l-1.045.697.349-1.045zm-2.786.697.697.696.696.697h-2.089l.347-.697q.175-.348.349-.696m-8.706 1.741-.348 1.045a226 226 0 0 1 1.393-.696q-.175-.35-.349-.697l-.348-.697zm-134.78.349q.173.522.349 1.044l.347 1.046h-1.393l.349-1.046zm134.432 2.785-2.787 2.786h1.045q1.044 0 1.742 1.394l.696 1.393-1.393-.697-1.393-.696-.697 1.393q-.697 1.392-1.741 1.393h-1.045v-2.09h-2.786q.173.522.348 1.045.173.522.349 1.045l-1.046-.348-1.044-.349.696.697q.697.696 0 2.09-.696 1.393-3.134 1.393t-3.135-.697l-.696-.696.347.696q.176.348.349.697l-.696.347-.697.349 1.393.348 1.393.349-2.437-.349-2.439-.348q.35 1.218.697 2.438l.697 2.437-1.045-1.741q-1.045-1.742-3.134-1.742h-2.09q.696 1.046 1.394 2.09 1.392 2.09 2.088 1.742l.697-.349-.697 2.09-.696 2.091 1.045.347 1.044.349-4.178.348-4.179.349 1.044.348q.523.173 1.045.348l-.348 1.045q-.348 1.045 1.045 1.742l1.393.696-.697-.696q-.695-.697 0-1.742.697-1.044 4.529-.697l3.83.349-1.741-2.09-1.742-2.089h1.394v-1.394q0-1.392 1.044-2.437 1.046-1.045 2.09-1.045h1.045l-.348 2.089q-.349 2.09-1.045 2.09h-.697l1.045.697q1.046.695 2.089-.348 1.045-1.045 1.394-4.18.35-3.134 1.741-3.134h1.394l-1.394 3.134-1.393 3.134h3.483v-2.089l.697.696.696.697 1.046-1.742q1.044-1.74 2.437-1.044l1.393.696-.696-2.09-.697-2.089 1.393.347q1.394.348 1.742-.695.173-.523.348-1.045l-1.393.348q-1.394.349-2.09-1.045l-.697-1.393q.87-.175 1.741-.348 1.742-.349 2.439 1.393t1.393 1.741h.697v-1.393h1.045q1.044 0 1.393-1.741l.348-1.742-1.393.348-1.393.349.347-1.393.349-1.394h-2.09v-.696q0-.697 1.393-1.046 1.392-.348 3.482.697l2.09 1.045V350.7q0-1.045-1.741-1.393t-3.134-1.742l-1.393-1.393zm-133.039-1.393 1.393.697 1.394.696-1.394-.696zm135.127 0h1.394q-.175.348-.348.697l-.349.696-.348-.696zm10.449 0 .697.697.696.696-.696-.696q-.35-.349-.697-.697m-137.914.697 1.046.696zm118.062 2.089-1.741 2.09q1.219-.523 2.438-1.044 2.437-1.046 2.437-2.09v-1.045h-.696q-.696 0-2.438 2.089m4.528-1.741.697.348zm-2.438 3.831-.348.697 1.045.347q.522.176 1.045.349v-2.09h-.697q-.696 0-1.045.697m-125.028.697.697.696zq-.348-.35-.696-.697zm119.455 0q-.173-.35-.348-.697.175.348.348.697m20.549.696v.697h2.089l-1.044-.697-1.045-.696zm-133.038 0h1.393l-.349.697-.348.696-.348-.696zm125.375 0 .697 1.045zm-121.544.697h1.045v1.393h-2.786l.347-.697q.349-.696 1.394-.696m2.438.696 1.044.349zm104.48 1.392q.696 1.394 1.74 1.394h1.046l-.349-1.394q-.348-1.393-1.742-1.393h-1.393zm-98.212-.347.697.348zm103.088-.348.696 1.045.697 1.045h-1.393v-2.09m2.785.695.696 2.091q.35 1.045.697 2.09h-2.786l1.045.696 1.044.697-1.044.697q-.523.347-1.045.696-.176-1.044-.348-2.09l-.349-2.089h.697q.697 0 1.045-1.393zm-103.783.697.697.697zm89.852.697-.696.697q.349-.348.696-.697l.697-.697q-.347.35-.697.697m-3.134 1.393-.347.697h2.089l-.696-.697-.697-.696zm-4.528 4.528.697 1.741-.697-.348-.696-.349q.173.523.348 1.046l.348 1.044-1.393-.348-1.392-.348v2.787l2.437-1.046q1.219-.52 2.438-1.045l-.348-.696q-.175-.348-.348-.697h2.786v-.697q0-.695-1.742-1.044l-1.741-.349.347-.696.348-.697h-2.089q.35.871.697 1.742m-3.134 0-.348 1.044q.523-.347 1.045-.696l1.045-.697-.697-.348-.696-.348zm-3.134 2.437-.697.697h2.09l-.348-.697-.348-.696zm-67.563 2.787-.697-.697zm89.503-.349-1.045-.348zm-21.94 2.09-1.393 1.742 1.393-.348q1.393-.348 1.393-1.742v-1.393zm-52.24 1.045.697.349zm51.543 2.09v.696q-.522-.173-1.044-.349l-1.045-.347v3.483l2.089-1.742 2.09-1.741q-.523-.176-1.045-.349-.523-.175-1.045-.348zm6.617 1.044q.349 1.742 1.045 1.742h.697l-1.045-1.742-1.045-1.741zm-42.836-1.044.696.347q.35.176.697.349l-1.044.348-1.046.349.349-.697zm38.309 4.527-.697 1.045 1.045-.348 1.045-.348-.349-.697-.347-.696q-.35.52-.697 1.044"/><path fill="#FE41BC" d="M338.167 2.435q-.348 2.438.697 4.875t0 3.135l-1.045.697.697.348q.695.348.696 3.483v3.135h1.394L339.56 19.5l-1.044 1.393 1.044.348q1.045.349.697 3.483t.696 3.482l1.046.349-1.046 1.045-1.044 1.044.697.349q.695.348 0 2.09l-.697 1.74.697-.348.696-.348.697 1.393q.697 1.393 1.741 1.393h1.045l-.348.696q-.348.698.697 2.438t5.224 4.876 4.527 4.876 1.045 1.741q.697 0 1.044-1.741.35-1.742 3.483-2.787 3.135-1.044 4.527-.348t2.439 3.483q1.045 2.786-2.786 12.538-3.831 9.75-7.314 10.447-3.482.698-4.527-.347l-1.045-1.045v1.393q0 1.394 1.741 1.742t1.741 1.045v.696l.697-1.044q.347-.523.697-1.045l.347 1.393q.35 1.392 2.439 1.045 2.09-.348 3.832 1.393l1.74 1.742.697-.697q.695-.697 2.09-.348 1.393.347 4.527 3.134t5.224 2.09l2.089-.697.348 5.224q.348 5.224 1.046 5.224h.696q-.173-3.31-.348-6.617-.348-6.618 1.393-8.358l1.741-1.742.697 6.618q.695 6.615 1.393 6.964.697.349.697 5.573v5.224h-1.394l.347 1.044q.176.523.349 1.045l-1.393.349q-.696.173-1.393.348l1.044.697 1.046.696.696-1.741q.697-1.742 1.393-1.742h.697v-4.527q0-4.527-1.742-14.279-1.74-9.751 0-13.582 1.742-3.83 3.483-4.18l1.742-.348-1.046-1.044-1.044-1.046 1.393-.696 1.393-.697v.697q0 .697 1.742 1.393 1.74.697 4.179-1.741 2.437-2.437 5.572-2.437h3.135V57.81q.348.523.697 1.045.347.523.696 1.045l1.394-1.045q1.393-1.044 2.088-1.045h.697l-.348 1.045-.349 1.045h2.787l-.697-1.045-.697-1.045h2.09v2.09h1.394l-.349-1.045-.348-1.045h1.045q1.045 0 2.09 1.394 1.044 1.392 1.742 1.393h.696q-.173-.523-.348-1.045l-.348-1.045 7.313 1.045 7.315 1.045V57.81h-3.484v-1.393l-3.831.697q-3.831.697-4.527-1.045-.697-1.74-12.538-4.179l-11.841-2.438v2.09l-.349-.697q-.347-.696-2.09-.349l-1.74.349 1.045.697 1.045.696h-2.787v2.09h-1.045q-1.044 0-2.09 1.393-1.044 1.394-.697 2.438.176.522.349 1.045h-1.393l.348 1.393.349 1.394h-1.394V60.25q0-1.74-2.089-3.83-2.09-2.091-3.831-2.439-.871-.173-1.742-.348l.348 1.393q.348 1.392 1.742 1.742 1.394.348 2.437 1.74 1.046 1.395 1.046 4.529-.001 3.133-1.394 4.527t-1.393 3.134v1.742h-1.045q-1.044 0-2.09 3.83-1.043 3.832-5.921 3.832h-4.875l1.393-2.437q1.394-2.439 2.09-2.09.696.347 1.742-.697 1.045-1.045 2.437-3.83a45 45 0 0 0 2.438-5.922q1.044-3.133.697-6.269-.348-3.133-3.482-6.617-3.136-3.483-4.528-3.482h-1.393l.348-.697q.175-.347.349-.696-.698.349-1.394.696-1.393.697-3.134-1.741-1.741-2.437-5.921-2.787-4.178-.347-6.269-2.786-2.09-2.438-4.527-7.662-2.437-5.223-3.135-5.224-.697 0-1.741-6.965-1.045-6.966-2.09-7.314l-1.045-.348.696-1.045q.698-1.044-.696-2.438l-1.393-1.393.696-.348q.698-.349 0-3.483-.696-3.134-2.437-3.83L338.516 0q-.175 1.215-.349 2.435m2.786 3.482 1.045.349zm1.045 7.314.348 1.044zm-.697 2.786 1.045.696 1.045.697q-.696.173-1.393.348l-1.392.348.347-1.044zm2.786 2.786h1.394q-.35.173-.697.348-.697.349-.697 2.09v1.741h.697q.697 0 1.045 3.134t2.438 6.617 2.786 3.483q.695 0 1.741 2.786 1.045 2.786 2.09 3.134 1.045.349 1.393 1.742t-.348 2.09l-.697.696q-.521-.523-1.045-1.045-1.043-1.045-1.741-.696-.697.348-3.831-2.787t-4.179-8.358q-1.043-5.224-1.742-5.224h-.696l.348-2.09q.176-1.045.348-2.089h-1.393l.697-2.786q.697-2.786 2.089-2.786M271.3 40.395l-.348-.696zM71.743 41.79q.001 1.392-1.045 2.089-1.044.697-1.044 3.831v3.134q-.698-.173-1.394-.348-1.392-.348-6.965 10.1t-5.573 11.493q0 1.044 1.045 1.393l1.045.348-1.045.349q-1.045.347-1.045 1.741v1.393l.697-.697.697-.696v2.786h2.786l-.697.697q-.694.696 0 2.09.697 1.391 3.135 2.438 2.438 1.044 2.438 1.741 0 .696-3.83 1.393-3.832.696-4.876 2.438l-1.045 1.741h1.742q1.74 0 2.785-1.393t4.876-1.045 4.876 2.089 2.786 2.09q1.741.348 2.09 2.09l.348 1.742 1.044-.349q1.046-.349 2.786 3.134 1.742 3.483.349 6.269l-1.394 2.786-1.741-1.74q-1.741-1.742-1.393-2.787t-5.573-5.92q-5.92-4.877-8.706-5.225-2.787-.348-6.965 1.742-4.18 2.089-4.528 3.483-.175.697-.348 1.393l-.696-.349q-.35-.173-.697-.348l-.348.697-.349.697q.523.173 1.046.348 1.043.349 3.482-1.045t2.438-2.09q0-.696 3.831-1.742 3.831-1.044 6.965 1.046t4.875 4.527q1.74 2.438 2.787 2.09.521-.175 1.045-.348l-1.045 1.044-1.045 1.046h1.393q1.394 0 2.09 1.044.697 1.046.697 3.134 0 2.09-2.439 4.528l-2.437 2.438-1.045-2.09q-1.044-2.09-7.662-6.966-6.616-4.875-10.796-5.223-4.178-.35-6.617 1.045-2.438 1.392-3.134 3.831-.697 2.438.696 4.179l1.394 1.742-1.742.348q-1.74.348-1.741 1.393v1.045q.522-.173 1.045-.349 1.044-.347 1.393.349l.348.697-1.045.348-1.045.348q1.045.175 2.09.348l2.09.349-.348 1.742-.349 1.741 1.742-.348 1.742-.349-.349-1.393q-.348-1.393-1.045-1.393h-.697l.349-.697q.348-.696 3.483.348l3.134 1.045-.349 1.046-.348 1.044h2.09l-1.393 2.09q-1.395 2.09-1.045 2.786.348.697 1.393.348l1.045-.348-.349-.696q-.347-.698 1.046-3.134.695-1.22 1.393-2.439l2.09 1.393q2.09 1.393 2.089 4.18v2.785H60.6q1.393 0 2.787-2.09l1.393-2.09-5.921-3.482q-5.92-3.483-7.314-3.134-1.393.348-4.527-1.045t-3.832-3.83q-.696-2.44.349-4.529t4.876-2.437q3.83-.349 9.054 3.134t5.224 4.527q0 1.045 1.393 1.742.697.347 1.393.697l-.347.696-.349.697 1.045-.349q1.045-.348 2.09 1.742t.696 3.831q-.349 1.74-1.74 2.089l-1.394.348.349 1.045q.173.522.348 1.045l1.393-.697q1.393-.695 1.393-1.741v-1.045q.523.173 1.045.348l1.045.348-1.045-1.044-1.045-1.045h1.393q1.395 0 1.742-2.09.348-2.09 2.09-2.786t2.09-2.09q.347-1.394-.349-1.742l-.697-.348h1.393v-1.045q0-1.045 2.787-2.09t3.83-4.179q1.045-3.135 7.663-2.438 6.616.697 9.752 2.787 1.566 1.044 3.134 2.089l-.697-1.742q-.695-1.741-10.1-3.482-9.402-1.742-11.84-3.482-2.438-1.742-2.438-2.439v-.696l6.966.348 6.965.348v-.696q0-.698-8.358-1.046-8.359-.347-11.841-3.482-3.483-3.134-3.483-4.527v-1.393q-.522.346-1.044.697-.523.346-1.045.696v-1.045q0-1.044 1.045-1.393 1.044-.348 1.044-3.134t-1.393-4.529q-1.393-1.74-1.393-5.572v-3.83h2.09l-.697-2.09-.696-2.09 1.045.349 1.044.348.349-1.045q.173-.522.348-1.045l-1.393.348-1.393.349v-.697q-.001-.697 1.393-1.045l1.393-.347-.697-1.394q-.695-1.392 1.046-2.437l1.74-1.045q-.521-.175-1.045-.348-1.044-.349-1.045-1.393.001-1.045 2.786-5.573t2.439-5.92q-.35-1.394-1.742-1.394h-1.394q-.004.698-.003 1.394M271.3 44.923l-1.045 3.134 1.742-1.393q1.74-1.392 2.09-3.134l.347-1.74h-1.045q-1.044-.002-2.089 3.133m-3.483 1.045-.348 2.09 1.742-1.742 1.741-1.742-1.394-.348-1.393-.349zm-1.393.348-.347 1.741zm-3.83 5.572q-2.09 3.134-3.832 4.18-1.74 1.044-1.741 2.785 0 1.74-2.786 4.527t-2.438 3.831l.348 1.045-1.393.348q-1.393.348-1.045 2.09.347 1.741-.348 2.438l-.697.696.697.697.696.697q-.522.347-1.045.697-1.045.695-.697 5.223.35 4.529 3.832 11.493l3.482 6.966-1.741-.697q-1.742-.696-4.527-.347l-2.786.347 1.045 1.045q1.044 1.044 3.831 1.393 2.785.349 4.528 2.786 1.74 2.439 1.393 5.921-.349 3.482.348 5.223.695 1.742-.348 2.787-1.045 1.046-.349 3.135.697 2.089-.696 4.875-1.394 2.786-4.876 3.831l-3.482 1.045.695-2.787q.35-1.392.697-2.786h-1.045q-1.044 0-2.786 2.09-1.74 2.09-5.572 2.09h-3.831l.697-1.393q.696-1.392.696-10.448 0-9.055-2.09-13.932l-2.088-4.875 4.178 1.045q4.18 1.045 7.315 3.134 3.133 2.09 3.482 8.708.349 6.616-.348 8.009l-.696 1.394h2.09v1.393l-1.742-.349-1.742-.348v.697q0 .695 1.045 1.393 1.045.696 2.439 0 1.392-.697 1.393-9.403 0-8.707-3.483-12.19t-8.01-3.83-4.527-1.046v-.696h-2.09l.348 1.045.348 1.044h-.696q-.697.001-2.786-1.393-2.09-1.392-5.573-1.044t-4.875 1.393q-1.394 1.045-2.438.348-1.045-.695-2.785-.348-1.743.348-9.752-1.742t-12.885-4.527l-4.876-2.437-.348 1.044q-.348 1.046 1.393 2.09 1.74 1.045 2.437.697t1.394.697q.696 1.043 12.885 4.178l12.189 3.134q-.175.35-.349.697-.347.696-7.661 1.742-7.314 1.044-12.189-1.393-4.877-2.439-5.573-2.09-.695.348-3.831-3.134l-3.134-3.483-1.045 1.045-1.045 1.045 2.089 1.045q2.09 1.045 2.09 1.742v.695h1.393q1.394 0 1.742 1.394l.348 1.393.696-.348.697-.349v1.393h1.393q1.393 0 4.18 1.741t6.269 2.09 6.269-.697q2.785-1.044 5.572-.347 2.786.696 4.179 2.089t3.134 7.663l1.742 6.268q-.871-.348-1.742-.696l-1.742-.697v.697q0 .696-2.438 2.09-2.438 1.392-2.786 2.785-.173.697-.348 1.393l1.393-.347q1.393-.35 2.787-2.787l1.393-2.438 2.437 1.394q1.221.695 2.439 1.393l-.349-4.179q-.348-4.18-1.741-5.921t-2.437-5.92 1.392-6.269q2.438-2.09 4.527-2.09t4.876 2.785q2.786 2.787 3.134 10.449.348 7.661-.696 9.751l-1.045 2.09.696.348q.696.349.697 2.09 0 1.741-1.393 3.134-1.394 1.394-3.135 1.742-1.742.347-3.134-3.483-1.393-3.83-2.09-3.83t-1.394 2.785q-.346 1.393-.696 2.786h1.045q1.045 0 1.741 1.742.698 1.741 2.786 1.393 2.09-.348 2.786.348l.697.697v-2.787l1.044 1.045 1.046 1.045.696-.697q.698-.695 3.482-.695 2.788 0 3.483.695.696.697 2.09.349l1.393-.349-.697-1.044-.696-1.045h2.437q2.438 0 4.179 1.393t3.83 1.393q2.091 0 3.831-1.741 1.742-1.742 1.742-3.831v-2.089l2.089 2.089 2.09 2.09-.696-2.438q-.698-2.438-2.09-3.134l-1.393-.697q.523-.695 1.045-1.393l1.045-1.393v.696q0 .698 3.83 2.439t3.831 2.437q0 .697 1.394 1.045t5.224 3.831 7.313 9.403 3.482 7.314q0 1.393 1.742 3.134t1.393 3.134q-.173.696-.349 1.393l-6.617-6.269q-6.616-6.268-11.492-12.537t-6.27-5.921l-1.392.348q6.616 7.141 13.234 14.279 13.233 14.28 15.324 14.975 2.09.698 2.437 0 .348-.695-3.135-8.009t-7.313-13.582q-3.832-6.27-4.875-6.618-1.046-.349-1.046-1.393v-1.045h-1.044q-1.045 0-1.394-1.045-.347-1.045-3.134-2.09t-3.134-2.09q-.35-1.044-2.787-2.437-2.438-1.393-3.831-1.393-1.394 0-2.09-1.046-.695-1.043-.348-8.009.348-6.965-1.393-9.055t0-3.83q1.74-1.742 1.393-2.438l-.349-.697-1.044.697-1.045.696.347-1.044q.349-1.045 1.394-1.045h1.045l-.697-.697q-.697-.696-.348-3.483l.348-2.785h-1.393l1.045-1.045 1.045-1.045-1.393-.349q-.697-.173-1.393-.348l.347 1.045q.349 1.045-.696 2.09t-1.393 3.83l-.349 2.787-1.741-4.18q-1.742-4.178-2.786-4.527-.523-.175-1.045-.348l.697-.697q.695-.697.348-5.92-.348-5.224 2.437-11.145 2.786-5.921 5.573-9.055 2.786-3.134 2.437-4.18l-.348-1.044h2.09v-2.786h2.09l-.349-1.393q-.173-.697-.348-1.394-1.041 1.566-2.085 3.133m4.179-2.786.697.349zl-.696-.348zm103.783-.348q2.09 1.917 4.179 3.83 4.18 3.831 4.528 6.27t-1.741 7.314q-2.09 4.875-2.787 4.875h-.696l.348 1.394.348 1.393-1.045-1.045-1.045-1.045-.696 2.438q-.697 2.438-2.786 2.786t-2.786-.349-1.741-.348q-1.046.35-1.742-1.045-.697-1.392.696-2.785 1.393-1.395 4.18-8.01 2.785-6.618 2.785-11.145zm30.647 2.09.697 1.044q.696 1.046 2.786.348l2.09-.696q-.176.522-.348 1.045l-.349 1.044 1.742-.347q.87-.176 1.741-.349l-.348.696-.349.697 2.787-.697q2.786-.695 3.484 1.046l.695 1.741q.523-.348 1.045-.697.523-.347 1.045-.696v1.393h-8.01q-8.01 0-9.055.349l-1.045.348.348.697q.348.695-1.045 2.09-1.392 1.392-2.437.696t-2.786 0l-1.741.697-.349-1.046q-.348-1.044 2.437-3.83 2.787-2.786 5.224-3.134l2.439-.349-.348-1.044zm-333.639.696.697.348.696.348-.696-.348q-.35-.173-.697-.348m200.253 1.045.348 1.044.349-1.044q.173-.523.348-1.045h-1.393zm87.763 1.044q-.173.698-.348 1.394h1.393q-.175-.697-.348-1.394l-.349-1.393q-.173.697-.348 1.393m57.813 1.046-1.045-.349zm-346.525.348-.349 5.224q-.348 5.223-1.393 5.224-1.045 0-1.741 2.438a17.6 17.6 0 0 0-.697 4.876v2.437l.697-.348.696-.348 1.045 2.089q1.045 2.09.697 4.18-.348 2.088-1.742 2.436-1.394.349-2.786-3.134t-2.09-3.482h-.696q.173-1.22.348-2.437.349-2.438-.348-2.787l-.697-.348h2.09l-.348-2.09-.349-2.09.697.349.696.348.349-1.393q.348-1.393 1.045-1.393t1.045-1.394q.347-1.392-.349-2.089l-.696-.697 1.393.349q.696.175 1.393.348-.173-.348-.348-.697-.175-.346-.349-.696l1.046-.348q1.044-.349 1.393-2.439zm199.209 2.089q0 2.09-1.046 2.438-1.045.349-4.179 8.359t-3.134 10.447.696 2.786q.35.175.697.348-.348.698-.697 1.394-.346.697-.696 1.393l.696.348q.697.35 1.394 0 .697-.348.348-2.785-.348-2.439 1.045-5.92 1.393-3.484 1.045-4.877l-.348-1.393h.697q.696 0 3.83-6.966l3.134-6.965-1.742-.349-1.74-.347zm88.11 0q-.347 1.393-3.482 1.045-1.567-.175-3.135-.348l.349 1.044q.347 1.045 3.831 1.394l3.482.348-.697 2.09q-.696 2.09-3.134 2.437-2.438.35-2.438 1.742v1.393l-2.438-1.742-2.438-1.74q.176.696.348 1.393l.349 1.393q-.523-.173-1.045-.348l-1.045-.348v.697q0 .695 1.393 1.044t2.09-.348l.697-.697v.697q0 .697 2.089 1.045t2.09 1.045v.697l1.393-.349q1.393-.348 3.135-6.269 1.74-5.92 1.393-7.314-.349-1.393-1.393-1.393-1.046 0-1.394 1.392m72.092-1.045-.697-.348zm-22.637 2.09.348 1.045zm2.437-1.045.697.348.696.349-1.044.348-1.045.347q.173-.347.347-.696.175-.347.349-.696m-68.957 1.741q0 1.046-2.438 2.09-2.437 1.046-3.483.697-1.044-.348-3.83 1.394-2.787 1.74-5.572 4.527-2.786 2.785-3.832 5.224-.521 1.219-1.045 2.437h1.045q1.046 0 2.09-2.785l1.045-2.786.697.348.696.348.348-1.044q.349-1.046 3.83-2.787 3.484-1.741 3.484-2.438 0-.695 8.706-2.09 4.353-.695 8.706-1.393-.172-.697-.348-1.393l-.348-1.393-1.393.696q-1.393.697-4.179.697-2.785 0-3.484-.697l-.695-.696zm-79.404-.348.696.348zm82.19 6.27v.695l-1.393-.348q-1.393-.348-3.134 1.045t-2.787 1.045q-.521-.175-1.045-.349v2.09h-3.483l.349.697.348.697h-1.393q-1.394 0-2.09 1.741t-2.09 1.393l-1.393-.348q-.173.697-.348 1.394l-.347 1.393.347-.697q.35-.696 1.741-.349 1.395.35 2.09-1.044.696-1.395 2.786-1.742l2.09-.348-.348-1.045-.349-1.045 2.787-.348q2.786-.349 2.786-1.393v-1.046l1.393.697q1.394.697 2.438-.348l1.045-1.045 1.045 1.045 1.045 1.044q-.175-.695-.348-1.393l-.349-1.393 1.045.349q.522.173 1.045.348v-.697q0-.696-1.741-1.044l-1.742-.349zm-275.13 3.481q.173.35.348.697l.348.697q-.173-.35-.348-.697zm-.697 2.787.697.697.696.697-.696-.697zm104.829 8.359q-.35.696-1.393.347l-1.045-.347-.349 1.044q-.173.523-.348 1.045l1.045-.348 1.045-.348.348 1.044.349 1.045 1.393-.696 1.393-.697v1.742q0 1.741 1.045 2.09l1.045.348-.348 1.045-.349 1.045q1.045.35 2.09.696l2.09.697-.697-.348-.697-.349q.35-.346.697-.696l.697-.697q-.871-.348-1.742-.697-1.741-.695-1.393-1.741l.348-1.045 1.045.697 1.045.696V83.93q0-1.046-3.483-3.135l-3.482-2.09q-.175.347-.349.697M66.868 82.187l.348.697.348.697-.696.348q-.35.173-.697.348l.348-1.045zm111.097 2.787q.349 1.392 3.831 3.134l3.482 1.741-1.045-1.741q-1.045-1.742-3.831-3.134l-2.786-1.394zm-.697 4.875-.347 1.393 1.392-.348 1.393-.348v2.09l.349-1.045q.348-1.045-1.046-2.09l-1.392-1.045zm-83.932 5.573q0 .696 4.527 1.742 4.528 1.044 5.573 1.74 1.044.696 1.044 2.09v1.393h.697q.696.001 1.045-1.045t-1.045-2.785q-1.394-1.742-6.617-2.787l-5.224-1.045zm286.623 3.134q-.348 3.831.349 4.179l.696.348.697-3.83q.697-3.832-.349-4.18l-1.044-.348zm-273.738 4.527-.348.696h2.09l-.696-.696-.697-.697zm.697 3.483q.522 1.046 1.045 2.089l-1.393-1.045-1.393-1.044-.348 1.044q-.349 1.045.348 1.394l.696.348q-.346.174-.696.349-.349.172-.697.348l1.742-.348 1.741-.349-.695 1.393q-.697 1.394 1.392 2.786t2.438 2.787q.347 1.393 2.438 1.393 2.09 0 2.437-.697.349-.695-1.044-3.134l-1.394-2.437-.348.696-.348.697-1.393-.697-1.393-.696 1.045-1.046 1.045-1.044h-1.045q-1.045 0-1.742-2.437-.697-2.439-2.089-2.439h-1.394zm269.558 0 .348.697q-.173-.35-.348-.697m1.045 1.044v1.742l-1.393-.348q-1.394-.348-2.09 1.741t-2.09 3.134q-1.394 1.046-.696 3.134l.696 2.091 2.438-1.742 2.438-1.742-.697-.348q-.697-.348 0-2.089l.697-1.742.697 1.394.696 1.393 1.045-2.786q1.045-2.786 3.134-3.134l2.089-.348q-.173-.523-.348-1.045l-.348-1.045-.697.696q-.696.696-3.134 0-1.22-.348-2.437-.696zm2.09-1.044.348 1.045.349 1.045-1.045.348-1.046.349.697-1.393zm-349.66 8.359q.697.695 1.393 1.393l-1.393-.697q-1.393-.696-4.18-.349-2.786.35-2.786 2.09v1.742l-.348-.697q-.348-.696-2.09-.348-1.74.348-4.527 3.135-2.785 2.784-4.18 2.785-1.392 0-2.089 2.439l-.696 2.437-1.045-.349q-.523-.172-1.045-.348v.697q0 .696-3.482 2.09Q0 132.337 0 134.775v2.439l11.84-5.573q11.842-5.573 11.494-6.964-.349-1.394-2.09-1.394t-2.786 1.742q-1.045 1.74-2.09 1.393-.521-.175-1.044-.348l2.438-2.787q2.438-2.785 5.223-4.179 2.787-1.394 7.663-1.742l4.876-.348-1.045-.695q-1.045-.698-.697-1.394l.349-.697-2.787-.348-2.786-.348zm5.921-.697q.348.695 1.393.348l1.045-.348-1.393-.349-1.393-.348q.173.35.348.697m1.393 5.224-1.045.348q.175.522.348 1.045.349 1.045 3.135 1.045h2.786v-1.045q0-1.045-2.089-1.393-2.092-.348-3.135 0m7.313.348.697.348zm-12.885 2.09q.347 1.393 2.438 1.393h2.089l-1.044-.348-1.045-.348.697-1.045.696-1.045-.697.697q-.696.694-2.089 0-.697-.35-1.393-.697.173.697.348 1.393m-3.483.348-.348 1.045-2.09-.696-2.09-.697.35 1.741.348 1.742 3.135-.696 3.134-.697-.348-1.393q-.348-1.393-1.045-1.393-.698 0-1.046 1.044m183.188 3.831q.349.697-1.045 2.437l-1.393 1.742 1.045-1.393q1.045-1.393 2.438-1.045l1.393.348-1.393-1.393-1.394-1.393q.176.349.349.697m-196.422.696q.172.35.348.697l-2.09.697q-1.044.35-2.089.696v-1.044q0-1.045 1.742-1.393 1.74-.35 2.089.347m35.523 1.741q.348 1.742-1.045 4.528l-1.393 2.787h1.393v1.741q0 1.741.697 2.089.695.35.696 4.528 0 4.179 2.09 7.313l2.09 3.134q.173-.523.349-1.045.347-1.045-1.742-5.224t-1.393-9.751.696-7.662q0-2.089-.696-2.438l-.697-.349.697-.696.696-.697h-2.786zm-40.05 1.046.696.348zm48.06 1.044.697 1.045-2.089.349q-1.046.173-2.09.348.173 1.044.349 2.09l.347 2.089H54.33l.697.697q.695.695.348 2.09l-.349 1.393h1.394v4.876h2.09l-.349-2.439q-.348-2.438-1.044-2.786-.35-.173-.697-.348.346-.697.697-1.393.695-1.393 0-2.09-.35-.348-.697-.696l1.393-.697 1.393-.697-.349-.696q-.347-.696.697-1.742l1.045-1.045-1.393-.697q-.697-.346-1.393-.696.347.523.697 1.045m148.362 2.091-.697 1.741h2.787l-.697-1.741-.696-1.742q-.35.87-.697 1.742m13.234-.349-.697-.697zm-3.831 2.09-.349 1.393 1.394-1.045 1.393-1.045-1.045-.348-1.045-.349zm-10.447 2.089-.349 1.393h1.045q1.044 0 1.393-1.045l.348-1.044-1.044-.349-1.045-.348q-.175.696-.348 1.393m8.705 1.392v.697l1.393-.348q.697-.173 1.394-.349l-1.394-.347q-.696-.176-1.393-.349zm-8.705 3.135q.173 1.22.348 2.439h-.697q-.696 0-1.045 4.527t.348 4.876q.697.347.348 1.741-.348 1.394.697 2.09l1.045.696v-4.178h-1.394q.348-1.394.697-2.786.696-2.787 0-3.483-.35-.348-.697-.696l.697-.349q.696-.348 1.045-3.482.348-3.135-.697-3.482l-1.045-.349zm6.268 3.831q-1.045 1.393-.697 2.09l.348.696q.523-.695 1.045-1.393 1.045-1.393.697-2.088-.174-.35-.349-.697zm-154.978 2.09q-.35.348-.697.696h1.393v1.394q0 1.392 1.044 2.089 1.046.697.697 2.09l-.348 1.393h.697q.697 0 1.044-1.393t-.696-2.09q-1.045-.696-.697-1.742l.349-1.044H58.51l.696-.697.697-.696-1.046-.349q-1.045-.347-1.74.349m153.585 3.134q-.348 1.741.347 2.09l.697.348q-.347.35-.697.697l-.696.697.696.347.697.348.697-3.134.696-3.134h-1.044q-1.045 0-1.393 1.741m-152.89 6.966q1.046 1.219 2.09 2.437-.173-.697-.348-1.393-.347-1.394-2.09-2.438l-1.741-1.045zm151.497 4.179-.348 5.92-1.393-.696-1.394-.697v4.179q0 4.18.697 5.224.695 1.045 1.393 1.045h.697l-.349-1.741q-.348-1.742.697-2.786 1.044-1.046 1.045-5.573 0-4.526.696-5.224l.697-.696-.697-.348-.696-.349.696-1.393q.697-1.393-.347-2.09l-1.045-.696q-.176 2.96-.349 5.921m-4.18-1.742q-.347 1.393.348 2.439.696 1.045 0 2.088-.346.523-.696 1.046h2.787v-2.787q0-2.786-1.046-3.482l-1.045-.697q-.172.696-.348 1.393m2.439 8.359.347.696.349.697-.349-.697zm175.177 51.543q-.35 1.394-1.741 2.439-.697.52-1.394 1.045.35.346.697.696l.697.697q-.35.347-.697.697-.696.695-.349 2.088.348 1.394-1.741 2.09-2.09.697-6.965 10.1t-4.179 11.493l.697 2.089-.697-.347-.696-.349q-.176.696-.349 1.394-.348 1.392.349 1.741.346.174.696.349l.348-.697.349-.697v2.787h2.089l-.348 1.044q-.175.523-.348 1.046h.696q.698 0 1.046 1.393.173.696.348 1.393.522-.175 1.045-.348l1.044-.349-.347 1.045-.349 1.045 1.393-.348 1.393-.349v2.09l-1.741-.348q-1.74-.348-3.831.697-2.09 1.045-3.482 3.134l-1.394 2.09 2.09-.348q2.09-.348 3.832-2.091 1.74-1.74 4.179-1.393 2.438.348 9.056 5.921 6.616 5.572 6.617 7.314 0 1.74-1.394 4.527l-1.393 2.786-.696-1.742q-.698-1.74-1.742-1.74t-1.393-2.09-6.269-6.269q-5.921-4.18-8.358-4.18t-6.269 2.091q-3.832 2.089-4.18 3.482-.173.696-.348 1.393l-.696-.348q-.349-.173-.697-.349-.173.35-.349.697l-.347.697 1.044.347q1.045.35 5.573-2.785 4.526-3.135 6.616-3.134 2.09-.001 3.135 1.393 1.045 1.392 3.135 2.09 2.09.696 3.482 2.785 1.394 2.09 2.438 1.742l1.045-.348-1.045 1.393-1.044 1.394h1.741q1.74 0 2.089.695.349.697-.348 4.527-.696 3.831-2.438 4.529-1.74.696-3.831-2.09-2.089-2.787-7.313-6.617t-9.751-4.18q-4.528-.348-6.617.697t-3.134 3.831.348 4.527l1.393 1.742-1.741.348q-1.742.349-1.742 1.393t1.045 1.742l1.045.696q-.175-.522-.348-1.045l-.349-1.045h.697q.696 0 1.742 2.437 1.044 2.438 2.088 2.439h1.046l-.697.696-.697.697q.697-.175 1.394-.348l1.393-.349-1.045-2.09-1.045-2.089 3.135 1.045 3.134 1.045q-.173.523-.349 1.045l-.347 1.045 1.044-.349 1.045-.347v.696q.001.697-1.045 2.786l-1.044 2.09 1.044.349q.523.173 1.045.348l1.045-3.482q.521-1.741 1.045-3.483l2.09 1.045q2.09 1.045 2.089 3.831v2.785h2.09q2.09 0 2.786-1.741.698-1.741-4.876-5.224-5.572-3.483-7.313-3.135t-5.224-1.393-3.83-3.484q-.35-1.74.695-4.178 1.046-2.438 5.224-2.786 4.179-.349 5.224 1.045t2.437 1.393q1.394 0 5.225 4.179t5.224 4.528q1.392.347 1.741 2.437.348 2.09 2.089 2.09h1.742v-1.742q0-1.74 2.438-3.83l2.437-2.09-1.044-.349q-.523-.173-1.045-.348l1.74-2.089q1.742-2.09 3.483-2.438t3.135-3.483q1.392-3.134 10.099-1.045l8.707 2.091q-.522-.698-1.045-1.394-1.045-1.393-8.706-2.438-7.663-1.044-10.797-3.134t-3.134-2.785v-.697l6.617.697q6.618.695 6.966-.349.175-.523.348-1.045l-8.707-.348q-8.706-.349-9.751-2.09t-3.483-3.134-2.089-2.438l.348-1.045-.348.697q-.175.347-.348.696l-.697-.348-.696-.348 1.044-1.046 1.045-1.044-.696-.697q-.697-.696 0-2.786.696-2.089-.349-4.179t-1.741-2.09h-.696l.696-2.438q.697-2.438 0-3.482l-.696-1.045h2.089l-.348-2.091-.348-2.088h2.089v-2.09l-1.045.348q-.522.173-1.044.349v-2.09l1.393.348 1.393.348v-2.09h-2.09l.697-1.045q.697-1.044 1.741-1.045h1.045l-1.045-2.09q-.522-1.045-1.045-2.088h1.394v-1.742q0-1.742 2.089-3.831t2.09-3.832q0-1.74-1.045-2.088l-1.045-.349q-.177.695-.351 1.391M77.664 231.246q-1.045 2.09-.697 4.875l.349 2.786H76.27q-1.044 0-1.393 4.179t.347 4.528l.697.348-1.393.349-1.393.348 1.045.697q1.045.696-.349 3.134-1.392 2.438-.348 4.179l1.045 1.742-1.393.348q-.697.173-1.394.348l.697.697q.696.697 0 2.09t.697 3.134q1.392 1.74 2.089 5.224t3.134 5.92q2.438 2.438 3.135 5.225t-1.393 5.571q-2.09 2.787-4.876 1.742l-2.786-1.045v1.394q0 1.392 3.135 2.09 3.135.695 3.134 1.741v1.045h-1.045q-1.044 0-1.393 1.393-.347 1.393-2.787 1.045-2.437-.349-2.785 1.045t1.393 2.786q1.74 1.392 1.045 3.134-.698 1.741.696 2.438 1.395.696 1.394 1.742v1.045l1.045-1.045 1.044-1.045-.348 1.393-.348 1.393h1.741q1.742 0 4.18 2.786t3.83 2.437q1.394-.348 2.438 2.439 1.046 2.786 2.09 2.786t1.393 1.045 2.09 1.045h1.74l-.696 4.875-.697 4.876h.697q.697 0 1.393-2.09t1.045-5.921q.349-3.83 1.394-5.224 1.044-1.393 2.437-1.741l1.393-.349-.696 9.055q-.697 9.055-1.742 12.19t-3.134 4.179l-2.09 1.045q.523.523 1.045 1.044l1.045 1.046 1.742-1.742q1.74-1.74 2.786-5.224 1.044-3.483 1.741-13.93.696-10.449 2.786-12.19t2.785-3.483q.698-1.74 2.439-1.741h1.741l-1.045-.348q-.522-.175-1.045-.348l.349-.697q.348-.697 1.393-.697h1.045v2.09l1.045-.696 1.045-.697.348 1.046q.348 1.044 3.83 0t3.483-1.742v-.697l2.439.697q2.438.696 3.83 0l1.394-.697v2.09l1.74-.348q1.742-.348 2.09.697.349 1.044 1.393 1.044h1.046q-.176-.522-.349-1.044l-.348-1.046h2.09l-.349 1.394-.348 1.393 1.045-1.045 1.045-1.045 1.393 2.09 1.393 2.089.349-1.045q.349-1.044 1.393-1.044t3.134.696 2.438 1.742l.348 1.044q.523-.173 1.046-.348l1.044-.348-.348.696-.347.697 1.393.696q1.393.697 2.785.349 1.394-.348 1.394-1.742v-1.393h-1.394q-1.392 0-2.09-1.045-.695-1.044-4.527-1.393-3.832-.348-3.832-1.045v-.696h3.484l-11.493-6.269q-11.493-6.268-12.19-6.268h-.696v2.089q-1.046-.522-2.089-1.045-2.09-1.046-3.134 0-1.045 1.045-.697 2.09l.348 1.045-1.392-.348q-1.395-.348-3.832 2.785l-2.437 3.136-.697-3.831q-.696-3.831-2.786-5.225-1.045-.695-2.09-1.393v1.393q0 1.393 1.742 3.135 1.741 1.74 1.393 4.527t-5.92 9.404q-5.573 6.617-7.315 6.965l-1.741.348v-.697q0-.697-2.786-1.74l-2.785-1.046 1.741-.696q1.741-.697 1.742-1.741v-1.046h1.741q1.74 0 6.269-5.92 4.528-5.92 3.831-10.796-.696-4.877-3.483-8.01l-2.786-3.134q-.172.87-.348 1.74-.349 1.742 1.742 3.483 2.088 1.74 2.787 5.921.695 4.178-1.394 7.313t-4.528 4.527l-2.437 1.394.696 1.044.697 1.045q-.523-.522-1.044-1.045-1.046-1.044-1.742-.697-.697.348-.348 1.742.348 1.395-.697 1.742-1.045.348-3.134.348T84.635 311q-1.743-1.044-2.09-2.438-.349-1.393 2.436-3.483 2.788-2.09 6.618-7.312 3.83-5.225 4.527-9.056t-.696-6.964-5.573-4.876q-4.177-1.74-5.572-5.224t-2.09-8.01q-.697-4.528-1.393-4.527h-.697l.697-1.394.696-1.393-.696-.347-.697-.348.697-.697q.696-.697.696-5.572 0-4.877-.696-5.573l-.697-.697.697-.347q.696-.348.696-2.439 0-2.09-1.044-2.437l-1.045-.348h2.089v-3.134q0-3.135-1.393-4.18l-1.393-1.045q-.527 1.041-1.048 2.087m299.16 2.089.697.348.696.348q-.346.174-.696.349-.697.348-1.741 4.876-1.045 4.527-.349 6.617l.697 2.089-1.045-1.045-1.045-1.045-.348 3.483-.349 3.482h.697q.696 0 1.742 2.09l1.044 2.09h-1.393l.349 2.09.348 2.089h-1.394q-1.392 0-2.785-3.135t-2.09-3.134h-.697l.349-2.437q.348-2.438-.697-2.787l-1.045-.348 1.393-.349 1.393-.348q-.347-.697-.696-1.393l-.697-1.393h2.09v-1.394q0-1.392 1.393-2.438 1.393-1.045.697-2.437l-.697-1.393 1.045.695 1.045.697 1.045-3.134q.523-1.565 1.044-3.133m-298.115 1.393.697.697q.346.349.696.696l-.696-.696zm-1.394 6.618.698.347q-.35-.173-.698-.347m.698 1.74q.521.35 1.044.697l1.045.697-.696-.349-.697-.348-.349.697q-.174.347-.347.696v-2.09m-1.394 2.787 1.045.696 1.045.697h-2.787l.349-.697zm.697 2.089q.695.175 1.393.348l1.393.348-.696.697q-.698.696-.697 6.269 0 5.573.348 6.618.349 1.043 1.393 1.044h1.044q-.346.523-.696 1.045-.696 1.045 1.393 5.573 2.09 4.526 1.393 6.965-.346 1.219-.696 2.437-.35-.695-.697-1.393-.695-1.392-1.741-1.393h-1.045v-1.393q0-1.394-2.09-3.831t-1.742-7.662-.348-5.921l-.697-.696.697-.349q.697-.347.348-2.09-.348-1.741.697-2.785 1.044-1.046 1.045-2.438zm296.723 1.393 1.044.348zm3.482 11.145q.173.348.349.696l.347.697-.696.349-.697.347q.175-.521.349-1.045zm26.468 13.234q0 .696 5.573 2.089 5.572 1.394 5.572 2.787v1.393a474 474 0 0 1 2.09-1.393l-1.742-2.09q-1.742-2.09-6.617-2.786-2.437-.349-4.876-.696zm-318.315 5.572 3.83 1.393q3.832 1.393 4.18 5.224t-4.876 10.448q-5.225 6.617-6.269 6.269l-1.045-.348.697 1.045q.694 1.044 0 1.741-.697.697-3.832.697t-3.83-1.742q-.697-1.741 2.437-5.92t4.527-9.751q1.394-5.572 2.09-6.618.698-1.045 1.742-1.045h1.044l-.347-.696zm331.201 2.438q-.348 1.742 1.046 3.135l1.393 1.393-1.742-1.045-1.741-1.045v3.483l1.393-.348q.697-.173 1.393-.349l-.696 1.394q-.697 1.392 1.393 2.786 2.09 1.393 2.785 3.134l.697 1.742q.173-.348.349-.697.348-.697 2.089-.349l1.741.349-1.045-2.786q-1.045-2.786-3.134-3.134l-2.09-.348 1.393-.697 1.393-.697-1.393-.348q-1.393-.348-2.089-3.483-.697-3.133-1.742-3.482l-1.045-.348zm-354.883 4.179q0 1.045-6.27 1.393-6.267.348-6.268 1.046 0 .695-2.786 1.74-2.785 1.046-2.785 2.09v1.045l2.785-1.741q2.786-1.742 6.966-2.439 4.178-.696 11.144.349l6.965 1.044-.347-1.741q-.35-1.743-4.18-1.742-3.83 0-4.527-1.045l-.696-1.044zm284.882 5.573q-.35.173-.697.348l.348.696.349.697 1.045-.697q.523-.346 1.044-.696l-.696-.348a1.48 1.48 0 0 0-1.393 0M56.071 292.54l-3.83.697.348 1.393q.349 1.393 2.438 1.045t2.786-1.393q.347-.522.697-1.045l.347 1.045q.176.522.349 1.045l1.741-.696 1.742-.697.349 1.045q.172.522.348 1.045l.696-.348.697-.349v.697q0 .696 1.742 1.045 1.74.348 2.088-.696.35-1.045-.347-1.394-.698-.348-1.394.697l-.696 1.044.348-1.393q.347-1.392-.348-2.437-.696-1.045-2.09-.348-1.394.695-2.786 0-1.394-.697-5.225-.002m284.535.697 1.392 1.393-1.392-.696q-1.394-.697-4.18-.349-2.786.35-2.786 1.393 0 1.046-2.09 1.394t-3.134 2.089q-1.046 1.74-4.179 2.787-3.135 1.044-3.831 3.83l-.697 2.787q-.52-.35-1.045-.697-1.044-.696-2.09.697-1.044 1.392-3.83 2.437l-2.787 1.045.697.348q.697.348.697 2.09v1.742l8.357-3.831q8.36-3.831 8.359-4.527v-.697l.697.348q.696.348 5.921-2.437 5.223-2.786 5.921-2.438l.696.348v-2.786h-1.045q-1.045 0-1.393 1.045l-.348 1.044-1.742-.696-1.742-.697v3.483l-.696-1.044q-.697-1.046-2.089-1.046-1.394 0-2.439 1.742t-2.437 1.393q-.697-.173-1.393-.348l1.045-1.741q1.044-1.742 3.831-3.483 2.785-1.742 4.178-1.742 1.395 0 1.742-1.044.348-1.046 4.876-1.046h4.527l-.696-.348q-.697-.348-.349-1.393l.349-1.045-3.136-.348-3.134-.349zm-300.555 1.741-1.742 2.438 2.439-1.393q2.437-1.394 2.437-2.439v-1.044h-.696q-.697 0-2.438 2.438m10.1 0v1.741h1.393l-.697-1.741-.696-1.741zm-3.831 1.045-1.045 1.393q-.175-.348-.348-.697l-.349-.696-.696.696-.697.697.697.697q.696.696 2.089.347 1.393-.348 1.393-1.045v-.696q.522.175 1.045.348l1.045.348v-2.786h-1.045q-1.044.001-2.09 1.394m74.877-1.393.697.348zm-51.892 3.135.349 1.044zl-.348-1.046zm56.768-.349 4.179.697-.347-.697-.349-.697h2.09l-.348.697-.349.697 1.394.347q1.392.348 2.09 1.742l.696 1.393 1.045-1.045 1.045-1.045.697 1.045.696 1.045q-.522.175-1.045.348l-1.044.349 2.785.697q2.786.695 3.483 1.74l.696 1.045-5.224-1.741q-5.223-1.743-7.314-1.045l-2.09.696 1.046-1.044 1.044-1.046-1.044-.348q-1.046-.349-3.483-.348-2.437 0-3.831 1.393t-4.178 1.393q-2.788 0-3.135-1.741-.35-1.741 3.135-3.483 3.48-1.74 7.66-1.044m222.194.349q-.697.347-.348 1.393.347 1.044 2.785 1.044h2.439v-1.044q0-1.045-2.09-1.393t-2.786 0m-5.921 2.437q.349 1.393 2.439 1.393h2.09q-.176-.696-.349-1.393l-.348-1.393-.697.696q-.696.696-2.09 0-.696-.35-1.393-.696zm36.568.348q0 1.045-1.393 1.393l-1.393.349.348.697.348.696 2.439-1.393 2.437-1.393-1.393-.697-1.393-.697zm-34.129-.348.696.348zm-218.712 1.393h1.393l-.348 1.045q-.173.523-.348 1.045-.176-.522-.348-1.045zm9.055 2.787q.35.173.697.348zm190.501.695.349.697-1.742.696-1.741.697-.349-1.045-.348-1.045q.87-.173 1.741-.349 1.743-.346 2.09.349m35.524 3.484q-.349 4.178-1.393 4.527l-1.045.348 1.045.349q1.044.348 1.393 5.92.348 5.573 2.09 9.055 1.74 3.483 2.786 3.482h1.045l-.349 1.046q-.348 1.044 2.09 2.785 1.218.872 2.439 1.742l-3.831-6.269q-3.832-6.269-3.832-9.056 0-2.785-.696-3.482-.697-.697 0-7.314.696-6.617-.349-6.966l-1.044-.347q-.176 2.09-.349 4.18m-287.67-1.394.35.697zm295.68 0q-.696.696 0 1.742l.696 1.045-1.393-.349q-1.392-.348-2.089.349-.697.696-.348 2.09.348 1.393 2.09 1.045 1.74-.349 2.437-2.089.696-1.741 0-2.787l-.697-1.045h2.787l-1.393-.348q-1.394-.348-2.09.347m-48.061.697.697.697q.349.347.696.697-.348-.35-.696-.697zm47.364 3.135q.35.173.697.348zm-283.49 1.74.35.697zm281.401 5.225q0 3.83.697 4.179l.696.347q-.173.35-.348.697-.175.348-.348.697h1.045q1.044 0 1.392-1.045t-.696-2.786-.349-3.135q.35-.696.697-1.393l-1.393-.697-1.393-.696zm2.089 8.358q0 1.741.349 2.785.347 1.046 1.392 1.046h1.045v2.786l.697-1.393q.697-1.393-.349-2.09t-1.045-2.786v-2.09h-2.09zm-185.974 7.314q0 2.09 2.09 4.179t1.742 3.482l-.349 1.393h.697q.696 0 1.045 1.742.348 1.742 1.741 2.786t1.045 2.438l-.348 1.393h1.045q1.044 0 1.742 2.786.695 2.786 2.088 3.134t2.091 3.135q.695 2.786 3.134 3.134t3.134 1.742q.697 1.392 3.482 2.787 2.787 1.392 6.269 1.74 3.483.35 4.876 1.741 1.393 1.393 1.741 4.18t-.348 3.135l-.696.348.696.348.697.348-2.786.697-2.787.696.349 1.394.348 1.393 2.437-1.393q2.439-1.393 3.831-1.045l1.393.348-.696.697q-.697.697-.348 2.438.348 1.742-1.393 2.437-1.741.697-1.393 2.439t2.437 2.09q2.09.348 2.786-1.393t0-2.439q-.696-.695-1.045-5.92t-1.393-5.921-2.089-4.179q-1.046-3.484.348-5.224 1.393-1.741 4.179-2.09t5.224 2.09q2.438 2.437 2.786 5.572.349 3.134.348 6.965 0 3.832-.348 5.572-.348 1.742-1.045 1.742h-.697l.697 1.742q.697 1.74-.348 2.437t-1.045 2.09v1.393l3.831-.348q3.83-.348 4.527.348l.696.697.697-1.393q.696-1.394 6.269 0 5.573 1.392 6.966.347l1.393-1.045 3.483 5.573q3.483 5.571 3.482 8.01 0 2.437 1.045 2.785l1.045.349-.697-3.483q-.697-3.483-1.741-4.18t-3.832-6.269q-2.786-5.573-2.786-7.661 0-2.09 1.045-2.786l1.045-.697 5.572 8.708q5.573 8.706 5.921 11.493.349 2.786-.348 4.179l-.697 1.393 1.392-.348q1.394-.349 1.394-3.136 0-2.785-1.394-6.268-1.392-3.483-7.312-11.145t-5.573-12.886q.349-5.224 1.393-5.572.523-.175 1.046-.348h-2.091v-1.046q0-1.044 1.393-1.393 1.394-.347 1.742.348l.348.697v-2.09l1.045.349q1.045.348 2.785-2.09 1.742-2.437 1.394-3.483-.348-1.044 2.437-2.09 2.786-1.044 2.786-2.089v-1.045l1.045.697 1.045.697.697-1.394q.696-1.393 2.437-1.045l1.742.349-1.045-1.046-1.045-1.044 1.045-.349q1.044-.348 1.742.697.695 1.045 1.393.696l.696-.347-.696-1.046-.697-1.044q1.22.173 2.438.348 2.438.349 2.786-1.742l.349-2.09q.172.348.348.697.348.697 1.74.697h1.394v-1.394l1.742.349 1.74.348v-1.393l2.09.347q2.09.35 2.786-.347t.348-2.09-1.392-1.393h-1.045v1.393l-2.09-.348-2.09-.349v1.046q0 1.044-1.393 1.741-1.394.696-2.437.696h-1.046v-2.09h-1.393q-1.393 0-12.538 2.439-11.144 2.437-11.144 3.831v1.393l-1.742-.349-1.741-.348q.347.523.696 1.045l.697 1.045-1.045.696q-.523.35-1.045.697l.697.697.696.696-1.045.349q-1.045.349-1.393 2.437-.349 2.09.348 2.439l.697.348 1.393-3.832q1.393-3.83 4.876-5.224 3.482-1.393 3.135-2.437l-.349-1.045 5.921-.348q5.92-.35 6.269.348l.348.697-5.92 2.09q-5.921 2.089-7.314 3.134-1.394 1.045-1.045 2.088.348 1.046-.349 2.439-.695 1.393-1.741 1.393h-1.045q.173.348.349.697.347.696-.697 1.393-1.046.698-3.134 0l-2.09-.697q.348.697.696 1.393l.697 1.394-3.482-2.438q-3.483-2.438-5.224-2.438h-1.742l.348 1.394q.348 1.393 2.438 1.393 2.088 0 3.482 1.045 1.393 1.044 2.09 3.134.695 2.09.347 4.875-.347 2.788.349 3.483l.697.697-1.046 1.044q-1.044 1.046-.347 2.09.346.523.696 1.045-.349.175-.696.349-.697.348-.349 2.785t-3.832 4.18l-4.178 1.74.348-2.786q.348-2.785 1.393-3.83 1.045-1.046 1.045-6.966t-1.742-9.403q-1.74-3.483-5.572-5.224-3.83-1.74-6.268-1.741-2.439 0-3.136.696-.695.696-3.134-.696-2.437-1.394-4.876-1.045-2.437.348-3.481 1.393t-3.136.348q-2.089-.697-8.01-4.875-5.92-4.18-6.964-6.27-1.046-2.089-3.483-4.178-2.437-2.091-2.438-3.135 0-1.045-1.742-1.741-1.74-.696-1.393-1.742.349-1.043-1.393-2.09-1.741-1.044-2.09-2.437t-2.089-3.134q-1.74-1.742-2.787-1.742h-1.044q.005 1.046.004 2.091m-88.11 0q.346 1.392-1.046 3.135-1.393 1.74-1.045 2.785.173.523.349 1.045l1.741-3.134q1.74-3.134 1.74-4.179v-1.045h-2.089zm90.896 2.786q.35.173.697.348zm-97.166 8.706.348 2.439h-1.393v-2.786l-1.393.347q-1.393.35-2.09 1.742-.697 1.394-2.437 2.09l-1.742.697.696.348q.697.348.349 2.09l-.349 1.741 2.787-1.044q2.786-1.046 3.134-3.134.348-2.09 4.876-2.787 4.526-.696 4.527-1.742v-1.045h-2.09q-2.089 0-3.135 1.045l-1.044 1.045 1.044-1.741 1.045-1.742h-3.482zm102.738.349h2.09l-.697 1.393q-.346.697-.696 1.394-.175-.697-.348-1.394zm94.381 1.392q.174-.347.347-.696-.173.349-.347.696m-90.202 0h.697l-.348 1.046q-.348 1.044 2.438 3.482t3.483 4.179q.695 1.742 2.437 1.742h1.741v1.044q0 1.046 4.876 3.134 4.876 2.09 5.572 4.529l.697 2.437-6.269-1.741q-6.268-1.743-9.054-5.572-2.788-3.831-3.831-4.181-1.045-.347-1.393-2.09-.348-1.74-1.046-1.74-.696 0-1.393-2.787-.696-2.786 0-3.134a3.1 3.1 0 0 1 1.393-.348m-107.614 2.787.349-.697zm184.233 0q.523.173 1.045.348l1.045.349q-.348.173-.696.348t-.697.348l-.348-.696zm5.573 1.393.696.697zm-16.717 2.09.697.348zm7.661 2.786.349.696q.173.35.348.697l-.697.349-.696.348.348-1.045zm-3.482 2.089.697.697zm-33.434 5.572 3.832 1.045q3.83 1.045 6.617 3.136 2.786 2.089 3.134 7.661.347 5.573-.348 6.964l-.697 1.394.697.347.696.349h-2.786l1.045 1.393q1.044 1.394-1.045 3.482-2.09 2.09-5.225 2.09h-3.134l.697-7.661q.696-7.663 0-11.841-.696-4.18-2.09-6.269zm-19.503 19.852q-.695 1.045-3.831 1.742l-3.134.696.348.697q.349.697-1.045 2.437-1.393 1.741-3.134 2.439-1.74.696-4.179 6.269l-2.437 5.572 1.393-1.045q1.392-1.045 3.134-4.876 1.742-3.83 8.707-8.358 3.483-2.263 6.965-4.527l-1.045-1.045-1.045-1.045zm-1.393 7.313q-.696 1.393-2.09 1.393h-1.393l.348.697q.348.696-1.044 2.09-1.393 1.393-2.439 1.393h-1.044l.347 1.045q.35 1.045-.347 1.742-.35.348-.697.697l.697.348q.346.174.696.347l-1.393-.347q-.696-.175-1.394-.348l.349 1.044q.348 1.046-1.045 1.742t-1.045 2.09l.348 1.393h-1.045q-1.044 0-1.393 1.393l-.348 1.393 1.74-.695q1.742-.697 1.742-2.439v-1.741h1.045q1.044 0 3.483-4.528 2.437-4.527 3.83-4.527h1.393v-2.787l1.046.697q1.044.696 3.482 0t2.786-1.741q.173-.523.348-1.045h-1.045q-1.044 0-1.393 1.045l-.349 1.044-.347-1.044q-.35-1.045-1.741-1.394-1.391-.35-2.088 1.043m1.393 0 .697.697.696.696-.696-.696zm12.538 2.787v1.393l1.742-.348q1.741-.349 2.786.348l1.045.696-.348-1.393q-.348-1.393-2.09-1.045-1.741.347-2.437-.348l-.697-.697zm-30.996 13.582-.347 3.134 1.045-1.045q1.045-1.045 1.044-3.134v-2.09h-.696q-.698 0-1.046 3.135m68.608 3.831.697.696zm3.484 2.437q-.696 2.439-1.394 2.439h-.696l.348-1.742q.175-.87.348-1.742l-1.741.697-1.742.697 1.393 1.045 1.394 1.045q-.697.173-1.394.348-1.392.348-1.393 3.134 0 2.786-1.045 4.179l-1.045 1.393h1.045q1.045 0 1.394 1.393.347 1.394 1.044 1.394t1.742-2.438.348-2.786-.696-2.09v-1.742l1.045 1.045 1.045 1.045v-6.268h2.09l-.697-1.393-.696-1.394 1.393.349 1.393.348-1.393-.697-1.393-.696q-.35 1.22-.697 2.437"/><path fill="#FE41BC" d="m115.277 46.316-.348 1.044 1.044.349 1.046.348v-2.089h.696q.696 0 1.742.348l1.044.349-.696.348-.697.349.697.696q.696.696 1.742 0 1.044-.696 3.134-.349 2.09.348 2.09 1.045v.697l4.527-.697 4.527-.696q-.347.349-.697.696l-.696.697.696.697q.697.696 1.394.696h.696l-.348-1.044q-.173-.523-.348-1.046l1.045.349 1.045.348v-.697q0-.695 1.393-1.044l1.393-.349-2.089-.348-2.09-.349.697.349.696.348-.696.696-.697.697-.348-1.045q-.348-1.044-10.796-1.741-10.45-.698-10.798.348m-4.875.697q-.35 1.044-1.742 1.044h-1.393l1.045.697q.522.35 1.045.696l-2.089.697-2.09.697.696 1.393.697 1.393-1.393-.696-1.393-.697v1.393h2.089q-.173.35-.348.697-.348.696-2.09 0l-1.741-.697-.349 1.045q-.348 1.045-2.437 1.393l-2.09.349 1.045.696 1.045.697h-1.045q-1.044 0-1.742 2.437-.695 2.439-1.74 2.439-1.046 0-2.439 2.437-1.392 2.439-2.785 2.438h-1.393q.521.523 1.044 1.045l1.045 1.046h-1.045q-1.045 0-1.741 2.088-.697 2.09-1.394 2.09h-.696v1.045q0 1.044 1.393 1.393l1.394.349h-1.742q-1.741 0-3.134 2.09-1.394 2.09-2.439 1.741l-1.044-.348q.347.523.696 1.044.696 1.046 2.09 1.394l1.393.348-.348-1.045-.347-1.044 1.044.347q1.046.35 2.09-.696 1.045-1.044 4.876-6.269t3.483-5.92 2.785-3.483l3.134-2.786-1.044-1.045-1.046-1.045 1.393.347q1.393.349 2.439-.696l1.045-1.045-1.045-.697q-.523-.348-1.045-.697h1.741q1.741 0 3.483-2.088 1.741-2.09 2.785-2.09h1.046l-.349-.697-.348-.697 2.438-.348q2.437-.349 2.437-1.393v-1.045h-1.393l.697-1.393.696-1.393h-1.741q-1.742 0-2.089 1.045m36.567 0-1.393.348.349 1.045q.347 1.044 1.392 1.044h1.045l-.349-.696-.347-.697 1.742.697q1.74.697 3.482 0l1.741-.697.349 1.045q.348 1.045 1.393 1.045t1.741-1.045q.697-1.044 3.134-1.045 2.439 0 3.135.697l.697.696-1.393.697-1.393.697h1.044q1.045 0 1.742-1.394.696-1.392 2.09-1.393 1.392 0 1.742 1.393l.348 1.394q.348-.348.696-.697.696-.697 2.091-.348 1.393.348 2.088-.697l.697-1.045v2.787l1.045-.697q1.045-.697.697-1.741-.349-1.045-2.439-1.045h-2.088l1.044.696 1.045.697q-.696.175-1.393.348-.697.175-1.393.348v-1.044q0-1.044-1.394-1.393-1.393-.35-11.492-.349-10.103 0-11.495.349m-36.22 1.044h1.394l-.348.697q-.175.35-.349.696l-.348-.696zm68.609 1.393-1.742 1.394q1.568.173 3.134.348l3.134.349-.348-1.742q-.348-1.742-1.394-1.742-1.042 0-2.784 1.393m-38.658 0 1.394.697v-1.393h-2.787zm19.155.349-.349 1.045h2.09q-.347-.523-.697-1.045l-.696-1.045zm25.771 0-.348 1.045h1.045q1.044 0 1.393 1.045.348 1.044 2.09 1.045h1.742q-.175-.348-.348-.697l-.349-.697h1.393v1.045q0 1.045 3.483 1.742t5.92 2.785q2.438 2.09 5.573 7.315 3.134 5.224 4.179 9.403 1.044 4.178 2.438 5.572 1.393 1.392 1.045 2.437-.348 1.046 2.438 6.618 2.785 5.573 4.876 6.966 1.044.694 2.089 1.392-.521-1.393-1.045-2.785-1.046-2.786-2.439-3.136l-1.393-.347q.35-.523.697-1.046.696-1.043-1.393-6.269-2.09-5.224-2.787-5.224-.695 0-2.088-5.223a36.4 36.4 0 0 0-4.18-9.751q-2.786-4.53-3.83-4.529h-1.046v-2.786h-1.044q-1.045 0-3.135-2.09t-3.831-2.09h-1.742v-1.392l-1.393.348q-1.392.349-1.742-.348-.347-.698-3.134-1.046-2.785-.347-3.134.698m-76.269-.349-.001 1.045.001 1.046h-1.394l.697-1.046zm226.72 5.225q-11.492 2.438-11.84 4.178-.349 1.742.696 2.09l1.046.349-3.136-1.046q-3.133-1.044-5.223 0l-2.09 1.046 1.045 1.393 1.045 1.393-.349-.697-.348-.696 1.742.348 1.741.348-.348-.696-.349-.697h3.483q3.483 0 3.831-1.393l.349-1.393 2.089 1.044q2.09 1.046 5.224.349 3.134-.696 4.179-1.742 1.044-1.044 7.662-1.393 6.616-.348 7.312-1.044t.349-2.09q-.348-1.395-3.483-1.742-3.132-.348-14.627 2.09m10.797-1.046 1.045.349zm-1.392.697 2.088.697 2.09.696-2.09.349-2.088.348v-2.09m-5.574 1.393q.872.173 1.742.348 1.741.348 1.741 1.045v.697l-1.741-.349q-1.742-.348-1.742-1.044zm-10.448.697q.697.346 1.394.696 1.392.697 1.044 1.741l-.348 1.046-1.045-.349-1.045-.348.697-.697.697-.696h-2.09l.348-.697zm6.27 0 .696.696.697.697-.697-.697zm-25.773 5.223-.696 1.045h1.741q1.74 0 2.091.697l.347.697h-4.875v.697q0 .695 1.741 1.044 1.743.35 3.135-.348 1.393-.695 1.045-2.09-.348-1.392-2.09-2.09-1.742-.696-2.439.348m-3.134 1.045.349.697.348-.697q.175-.348.349-.697h-1.394zm-.348 3.483 1.394 1.393v-2.786h-2.787zm-215.23 2.786.35.697.348.696H90.55l.348-.696zm209.658 1.393.697 1.393-1.046-.696-1.045-.697-.348 1.393q-.173.697-.348 1.393l2.09-1.045q2.09-1.044 2.09-1.741 0-.696-1.393-1.045l-1.394-.348zm89.156 1.741v1.742q.696-.175 1.393-.348l1.393-.349q-.173.697-.348 1.394-.348 1.392 1.741 3.482 2.091 2.09 3.135 1.741l1.045-.347v1.74q0 1.741 2.089 4.528t3.135 2.786h1.045v2.09l.348-1.393q.173-.697.349-1.394h-.697q-.696 0-1.045-1.742-.35-1.74-3.482-5.571-3.136-3.831-4.18-3.831h-1.045l.349-1.045q.349-1.046-2.439-3.134l-2.785-2.09zm-92.29 3.832.348 1.393 1.045-.348 1.044-.349-.347-1.044q-.35-1.045-1.393-1.045h-1.045zm-188.064 1.74q-4.528 1.046-4.528 2.09v1.045h-4.875l.696.348.697.348-.349.697-.348.696q1.046-.521 2.09-1.044 2.089-1.045 2.786-.349l.696.697v-1.045q0-1.045 1.393-1.74.697-.35 1.393-.697.175.346.349.697.348.696-.697 2.088l-1.045 1.393h1.045q1.045.001 1.741-1.393.697-1.392 2.439-.696a4.53 4.53 0 0 0 3.482 0q1.742-.697 1.742-1.393v-.697l.347.697.349.696 1.392-.696 1.394-.697v2.09l2.089-.697 2.09-.696.348 1.045q.348 1.044 1.393 1.044h1.045v.697q0 .697 2.09 1.393t5.224 3.483 3.83 2.437q.35-.173.697-.348l.697 1.393q.698 1.392 6.965 5.572 6.27 4.18 6.618 5.224.347 1.046 4.179 3.135 3.83 2.09 3.83 3.134 0 1.046 3.483 2.09 3.483 1.046 4.179 2.438t1.741 1.045q1.046-.349 1.742.696.698 1.045 3.831 1.393 3.135.35 3.135 1.046v.695h3.483a904 904 0 0 1-1.392-2.786q1.044.175 2.088.348 2.09.349 2.09 1.045v.697l-1.045-.348-1.046-.349q.176.349.349.697.348.696 3.135.696t3.831-1.742l1.044-1.742-8.009-.347q-8.01-.35-8.01-1.046 0-.695-3.483-1.044l-3.482-.349.348-.696.349-.697q-2.09-.87-4.179-1.742-4.18-1.74-4.529-3.134-.348-1.392-2.785-2.437-2.438-1.046-5.572-4.528-3.135-3.484-6.966-5.572-3.831-2.091-6.617-4.876-2.787-2.787-4.528-3.134-1.742-.349-2.09-1.393t-3.134-1.394q-2.787-.348-2.786-1.393v-1.045l-.697.349-.696.348-.349-.697q-.349-.697-6.268-1.393-5.923-.694-10.449.35m277.916 1.743q.349 2.784 1.393 3.134 1.045.347 1.393 4.179.349 3.83 1.045 5.572.697 1.741 1.393 1.742h.697l-.348 1.74q-.348 1.741.697 2.09t1.393 3.134q.348 2.787 1.044 2.786.698 0 1.394-1.741.697-1.741-1.045-4.528-1.741-2.785-2.439-6.617-.695-3.831-2.088-5.224t-1.046-2.787q.35-1.392-.696-3.482t-2.09-2.438l-1.045-.349zm-91.594.696q-.696 2.785-2.437 2.785h-1.742l.696 1.394q.35.696.697 1.393l1.742-1.393q1.741-1.392 1.393-2.09-.348-.696.696-2.09t.348-2.09l-.696-.696zM97.515 82.536q-.697 1.044-1.741.696-.523-.173-1.046-.349v.697q0 .696-3.134 2.09-1.567.695-3.134 1.394l1.741 1.393 1.742 1.393 1.393-2.437q1.394-2.439 2.438-2.439t1.742 1.045l.696 1.045.349-1.045q.346-1.044 3.135-1.393 2.787-.348 3.133-1.045l.349-.697-2.786.697q-2.787.696-3.134 0l-.349-.697.696-.348.697-.348-1.044-.349q-1.046-.348-1.743.697m-17.76 2.09q1.043 1.74 2.088 1.392t1.045-1.044-2.09-1.394q-1.045-.346-2.09-.697.524.87 1.046 1.742m-.698 1.74.349 1.393.348-1.044q.347-1.045-.348-1.394l-.697-.348zm211.05 2.439-.349 2.437v-2.09h-2.786l.696 1.393q.697 1.393 2.439.696 1.74-.697 1.741-2.437v-1.742h2.09l-1.742-.348-1.742-.349zm-204.782.348 1.045 1.393V87.76h-2.089zm3.135 1.045-.696 1.044zm317.271.348q-.348 1.392 3.482 5.92t4.18 6.269q.348 1.742 2.089 3.134 1.74 1.394 1.741 2.439v1.045h1.393v1.044q0 1.046 2.09 3.135 2.09 2.09 3.832 5.573t2.437 3.482q.697 0 4.528 8.01 3.832 8.01 4.527 8.01h.697l-.349.697q-.348.695 2.09 7.313t2.09 11.841q-.35 5.224.348 5.572l.696.348-.696.349q-.697.348 0 2.09.696 1.741 0 2.437-.697.697-.697 4.527 0 3.832.697 4.18l.696.347-1.044.348q-1.045.349-.349 3.134.696 2.788 0 3.135-.696.349-.348 5.921t-.349 5.92l-.696.349.696.696q.698.697-.348 3.135-1.044 2.438 0 4.527l1.045 2.089h-.697q-.696 0-1.393 1.742-.696 1.74-.348 4.18.348 2.438-.697 3.83-1.044 1.394-1.044 2.787v1.393l1.044-.348 1.045-.349v.697q0 .696-1.045 1.045-1.044.348-2.09-.696l-1.044-1.045v2.09h2.09v.697q0 .696-2.439 2.089t-2.09 2.09q.35.696-1.045 2.437-1.393 1.742-3.831 2.787t-1.741 2.786l.697 1.741h-2.437q-2.439 0-3.483 1.393t-.697 2.786l.349 1.393h-4.876v3.483q-.523-.173-1.045-.348l-1.045-.348.348 1.045q.348 1.045-2.437 2.438l-2.787 1.393.697.697.696.697 1.394-1.742q1.392-1.741 3.482-1.393 1.046.173 2.09.348l-1.045-.697q-.522-.347-1.045-.697.697-.346 1.394-.696 1.392-.695 1.044-2.09-.173-.697-.348-1.393h3.483l-.348 1.045q-.173.522-.349 1.045l-.696-.348-.697-.349.349.697q.347.696 2.09 0 1.74-.697 2.437-2.438t2.09-2.089 2.785-2.787q1.394-2.438 3.135-3.134 1.742-.696 3.483-3.483 1.741-2.785 1.393-4.179l-.348-1.393q.35.174.696.349.696.348 2.09-1.742t2.438-5.572q1.045-3.483.348-4.876l-.697-1.393 1.046-.349q1.045-.348.696-2.785-.348-2.438.348-2.786.697-.349 1.046-8.01.347-7.663-.349-8.358-.697-.697-.697-4.18v-3.483h.697q.696 0 1.045-8.01t-.349-8.706q-.695-.697 0-2.09.698-1.394-.347-9.403-1.046-8.01-5.225-17.762-4.18-9.752-5.224-10.1t-1.044-1.742-1.394-2.09q-1.392-.695-1.393-2.088 0-1.393-1.742-4.18-1.741-2.785-2.437-2.785t-1.045-1.742q-.349-1.741-2.09-3.134t-3.482-4.876-6.618-9.403l-4.875-5.92zM84.977 91.591l.697.348zl-.696-.349zm-6.964 2.09q-.35.521-.697 1.044h3.483v-2.09h-1.045q-1.046 0-1.741 1.045m206.87 0-.697 1.044 1.393.348q1.393.348 1.741-.348l.349-.696h-2.09v-1.394zm-2.439 2.785q-.173.523-.348 1.045l1.045-.348 1.045-.348-.697-.697-.697-.696zm-4.179 2.786q-1.045 1.741-.697 2.439.349.695 1.394.348.521-.176 1.045-.348l-.697-.697q-.695-.697.348-2.09l1.046-1.394h-.697q-.695 0-1.742 1.742m3.483 0-.348 1.045q.348-.175.697-.348l.696-.349-.348-.696-.348-.696zm-9.751 2.439q-1.742.695-1.742 1.393v.696q-.346-.173-.696-.347l-.697-.349.697 1.045.696 1.045-3.134.348-3.134.348q.172.697.348 1.393l.347 1.393h-4.179q.175-.346.349-.696l.348-.697-1.741.697-1.742.696q.696.35 1.393.697 1.393.696 1.045 2.439-.173.87-.349 1.74l2.439-1.045 2.437-1.044h-2.786v-1.393h5.573l-1.045-1.394-1.045-1.393h3.483v1.393l2.09-1.045q2.09-1.045 2.089-2.437v-1.394l1.393.697 1.394.697q.173-.871.348-1.742.348-1.741-1.045-2.09t-3.134.349m1.741 0h2.09q-.176.521-.348 1.044l-.349 1.045-.697-1.045zm123.287 4.178q0 1.394 1.741 3.831t1.045 3.831q-.696 1.393.697 2.438t2.437 5.921q1.045 4.875 2.09 5.572t3.483 8.706q2.438 8.011 3.134 8.011h.696v1.741q0 1.741 1.045 2.438 1.045.696 1.045 3.483 0 2.785 2.437 9.403 1.22 3.309 2.439 6.617l.697-1.045q.696-1.045-1.742-10.448t-3.134-10.796q-.697-1.393-1.742-1.393h-1.045l.697-1.046q.696-1.044-2.438-9.403t-4.179-9.402q-1.046-1.046-3.134-8.708-2.09-7.66-2.787-7.661h-.697l.349-1.045q.348-1.045-1.393-1.741-.871-.35-1.742-.697zm-189.11 4.876q-5.92.697-8.357 1.393-2.439.697-2.439 1.393v.697l.697-.348q.348-.173.696-.349l.349.697.348.697.349-1.045q.348-1.044 1.741-1.045h1.394l-1.394 1.393-1.393 1.393h4.18v-1.393l-.697.349-.696.348q.347-.697.696-1.394.697-1.392 3.831-1.74 3.134-.35 3.831.348l.697.697.697-.697.696-.696.348.696q.348.697 1.393.348 1.046-.348 2.09.697t1.741.697.349-1.394l-.349-1.044q.871.173 1.742.348l1.742.348v-.696q0-.697-1.742-1.046-1.742-.348-2.787.349-1.044.698-2.437 0-1.395-.697-7.316-.001m-12.189 2.09.697.696zl-.697-.697zm-5.92.696h1.045v2.787l-1.393-.349-1.393-.348.348-1.045q.349-1.045 1.393-1.045m69.305.697q.348.347.696.697zm-51.892.348q.522.173 1.045.349zm-158.81 1.393q-1.74 1.045-1.74 2.786v1.741h-2.091v2.787h-1.393l1.045 2.09 1.045 2.09q.173-1.394.349-2.786.348-2.786 1.044-3.831.698-1.044 2.438-1.393l1.741-.348-1.044-.697-1.045-.697 1.393-.348 1.393-.348-.697-1.045q-.696-1.047-2.437-.001m147.317.349v.695l1.045-.347q.523-.176 1.045-.349-.523-.175-1.045-.348l-1.045-.349zM41.793 127.811q-.697 1.044-1.393.696-.349-.173-.697-.349l1.046 2.091 1.044 2.09-2.438-.349-2.437-.348v1.392h2.09v1.046q0 1.044-2.787 3.83l-2.786 2.787.697.696.696.697H32.74l.696 1.742q.696 1.74-.696 2.437l-1.393.697 1.044.348 1.045.347-2.09.349q-2.088.348-2.089 2.438t-1.044 2.786q-1.045.696-.349 2.437l.697 1.742-1.045.348-1.044.349.348 1.044q.348 1.046-.696 1.742-1.045.698-1.045 3.482v2.786H22.99l.348 1.045.349 1.045-1.045.349q-.523.173-1.045.348h1.393l-.697 6.964q-.696 6.966.349 7.663l1.045.696-1.045.349q-1.045.349-1.045 1.393v1.045l.697-.348q.347-.175.696-.349l-.349 2.786q-.348 2.786.697 3.135l1.045.348-1.045.697q-1.045.697-.348 2.089.696 1.393 1.741 1.045t.349-10.448.697-13.583q1.392-3.481 1.044-5.224l-.348-1.741h.697q.696 0 1.741-2.786t.697-3.831q-.348-1.045.697-1.741t.348-2.09l-.697-1.394 1.045.349q1.044.348 2.786-3.134 1.741-3.483 1.742-5.224v-1.742h.696q.697 0 3.135-4.876t1.741-5.92l-.696-1.045h2.09v-3.482h2.089l-1.044-1.394-1.045-1.393q-.355.523-.701 1.046m-3.484 9.403q.174.346.349.696-.174-.35-.349-.696m-3.482 4.875 1.045.349 1.044.348q-.347.175-.697.348-.346.175-.696.348l-.348-.696q-.173-.35-.348-.697m382.745 27.862q-.348 1.392.697 3.134l1.045 1.742-1.742 1.044q-1.741 1.045-1.045 2.786l.697 1.742h-2.09l.348 2.09.348 2.09h-1.393l1.045 1.044 1.045 1.045-1.741.697q-1.742.697-1.742 3.134v2.437h-1.393l.348.697q.176.348.348.697l-1.044.348q-1.046.349-2.439 3.134l-1.392 2.787h1.045q1.045 0 1.393 1.393l.349 1.393q-.523-.347-1.046-.697l-1.044-.696v2.09h-2.09v1.741q0 1.741-1.045 2.438-1.045.696-.697 2.437.175.87.348 1.742l-1.392-.348-1.393-.348.347 1.044q.349 1.045-.696 2.09t-1.045 2.786v1.742h-1.394l.349 1.741q.348 1.741-.697 2.439-1.045.696-1.045 2.437t1.045 2.09q1.045.347 1.742-.349.696-.696 0-2.438l-.697-1.74 1.393.347q1.393.35 2.438-2.437t.348-4.179l-.696-1.393h2.785q-.173-.523-.348-1.045l-.347-1.045q.52-.175 1.044-.348 1.045-.348 3.483-6.269t2.089-7.314l-.348-1.393h.696q.697 0 1.045-2.438.349-2.438 1.045-2.438.697 0 1.742-2.786t1.393-5.224q.349-2.437-.348-3.483l-.697-1.045q.696.173 1.393.349l1.394.347v-2.787l-1.045.349q-.523.173-1.045.348v-1.393h1.045q1.044 0 1.741-4.876l.697-4.876h-1.393q-1.393 0-1.741 1.394m-.697 4.527q.176.523.349 1.045l.348-1.045.349-1.045h-1.394zM24.031 199.553q-.348 1.046 1.045 2.09l1.393 1.045v-4.179h-1.045q-1.044 0-1.393 1.044m3.83 16.02q2.788 11.494 3.832 12.886 1.045 1.393 1.044 3.831v2.438h.697q.697 0 1.044 2.786t2.787 9.054q2.437 6.27 3.482 6.966t.697 1.393 1.393 4.876q1.741 4.18 3.134 4.876 1.394.697 1.394 1.741 0 1.046 2.785 3.831t5.572 3.831q2.787 1.045 2.787 1.741t5.224 2.09 5.572 2.437l.349 1.046 1.044-.349 1.045-.348v2.09h3.483l-2.088-2.09q-2.09-2.09-4.18-2.437-2.09-.348-2.785-1.394-.697-1.044-2.44-1.393-1.74-.348-1.74-1.045v-.696h-1.741q-1.741 0-2.09-1.046-.348-1.044-1.742-1.044-1.392-.001-6.269-5.573-4.876-5.572-4.527-6.617.348-1.045-2.09-4.876-2.438-3.83-2.438-5.572t-2.786-8.358-2.786-8.707-3.831-11.841-3.831-12.538q0-2.786-1.393-3.134-.698-.173-1.393-.348zm378.915-8.707h1.393l-.348 1.045-.349 1.046q-.173-.523-.348-1.046-.175-.522-.348-1.045m30.647 11.842.697.348zM395.979 230.2l-.347 1.046 1.045-.697 1.045-.697-.697-.348q-.348-.175-.697-.348zm2.787 0-.349 1.046zl.348-1.044zm-5.573 5.573q-2.438 3.83-2.09 5.92t-1.393 3.831q-1.741 1.742-2.09 3.483t.697 2.785l1.044 1.045 4.528-9.403q4.528-9.403 4.528-10.099 0-.697-1.393-1.045t-3.831 3.483m35.872-3.135 1.044.349zm0 1.393-.349.697zm-5.92 5.573h1.045l-.697 1.045q-.696 1.044-1.393.696-.348-.175-.697-.348l.348-.697q.349-.696 1.394-.696m-32.389 4.876.696.696.697.697-.697-.697zm-1.394 4.875.349.697q.173.348.348.696h-1.393l.348-.696zm22.985 2.09.697.697zm-26.467 3.134-1.394 2.438q1.045-.347 2.091-.697 2.089-.695 2.438-1.741l.348-1.045-1.393.697-1.393.696q.173-.697.348-1.393t.348-1.393zm18.458-.348.348 2.089q.523-.521 1.045-1.045l1.045-1.045-1.393-1.045-1.394-1.045zm-21.245 4.179q-.696.696-.348 1.741l.348 1.045 2.09-1.393 2.09-1.393-1.741-.349q-1.742-.348-2.439.349m14.976 1.044-1.045 1.742h2.09v-3.483zm3.135-1.393q.347.175.696.349-.35-.174-.696-.349m2.437 1.046.348.696.349-.696.348-.697h-1.393zm-8.358 2.089q-.348.697.696 1.393l1.046.697.348-.697q.348-.696-.697-1.393l-1.044-.696q-.176.348-.349.696m-11.841 2.089-1.045 1.394h2.089v-2.787q-.521.698-1.044 1.393m9.403-.348q-.697.348-.697 2.09v1.742h1.045q1.045 0 1.393-2.09l.349-2.09h-.697q-.696 0-1.393.348M76.271 283.486l.348 1.393.697-.348q.695-.349 2.438.696l1.74 1.045-1.74-2.09q-1.74-2.09-2.787-2.09h-1.044zm284.185 17.413q.523.346 1.046.696v-1.393h-2.09zm-4.876 1.044q.348 1.045 3.483 1.742l3.134.697-.349-1.046-.347-1.044-1.046.348q-1.044.348-1.741-.697-.696-1.044-2.089-1.044h-1.394q.176.522.349 1.044m-2.786 1.046-.348-.697q.175.348.348.697m-3.831 2.088q.35.349.697.697zm3.135.349 1.045.348zl-1.045-.349zm2.438.697-.697-1.046zm2.089-.348v.695l1.393-.347q.696-.176 1.394-.349l-1.394-.348-1.393-.349zm-17.064 3.134-.349 1.045 1.742-.349 1.741-.348-.696.697-.697.697h2.09v-2.787h-1.741q-1.743 0-2.09 1.045m5.572 0 1.045 1.045.348-1.045.349-1.045h-2.787zm4.179-.697q-.523-.173-1.045-.348zm-13.582 1.741q0 1.394 2.437 1.742l2.439.348q-1.221-.87-2.439-1.742l-2.437-1.741zm-222.194 2.09q1.393 2.09 2.088 1.742l.697-.349v.697q0 .697 8.358 3.83 8.359 3.137 8.359 3.831 0 .696 2.437 1.394 2.437.696 2.438 1.393 0 .696 2.438 2.09t3.831 1.393q1.394 0 5.572 4.179 4.18 4.18 5.573 4.179h1.393q-.175-.523-.348-1.045-.348-1.045-1.394-1.045h-1.044l.348-.696q.173-.35.348-.697h-2.089l.347-1.045.348-1.045-1.393-.348q-1.393-.349-1.742-1.394l-.348-1.044q-.521.523-1.045 1.044l-1.045 1.046.348-1.393q.175-.698.348-1.394l-1.741-.348q-1.741-.349-4.528-2.787t-6.269-4.179-4.178-1.393q-.35.173-.697.348v-.696q0-.696-2.09-1.045t-2.089-1.045q0-.696-3.483-2.438a39.6 39.6 0 0 0-7.314-2.785l-3.83-1.046zm219.407 0v1.393h1.393l-.696-1.393-.697-1.393zm-228.114 1.742-.349 2.437h.697q.696 0 1.742 3.831 1.044 3.832 2.786 5.572 1.74 1.74 1.741 2.786v1.045h.697q.697 0 2.089 3.482 1.394 3.482 5.573 7.315 4.179 3.83 6.966 4.527 2.785.696 2.785 2.089v1.393l1.045-.348q1.045-.348 2.439 1.393 1.393 1.741 5.92 3.134l4.527 1.393-.348-1.393q-.348-1.394-2.786-1.741a7.2 7.2 0 0 1-4.179-2.091q-1.742-1.74-6.618-3.83l-4.875-2.09.696-.697.697-.696-1.393-.349q-1.393-.346-1.742-1.393l-.348-1.044-1.045.695-1.045.697.348-1.393.349-1.394h-.697q-.696 0-2.438-2.785-1.74-2.786-3.134-3.135-.696-.172-1.393-.348l.347-1.393q.35-1.393-1.044-2.786t-3.134-6.617q-1.742-5.224-3.135-6.966l-1.393-1.741zm224.284-.697.348 1.045q-1.046.173-2.089.348-2.09.349-2.09 1.394v1.044h1.741q1.741.001 2.09-1.393t1.045-1.393h.697l-1.045-1.045-1.045-1.045zm28.557 0q-.349 1.045.348 1.393.348.176.697.348h-1.742q-1.74 0-2.786 1.742-1.044 1.742-2.437 1.742h-1.393l1.393.696 1.393.697-1.393 1.393q-.35-.348-.697-.696l-.696-.697v1.393q0 1.393-1.394 1.741-1.392.348-1.393 1.742v1.393h-2.09q.173.523.348 1.046.349 1.044-1.045 1.741-1.393.696-1.393 1.742v1.044q-.348-.173-.697-.348l-.696-.348 1.045 1.393q.523.696 1.044 1.394-.87-.176-1.741-.349-1.741-.349-3.135.349-1.392.695-1.393 2.088v1.393l-1.045-.347-1.044-.348v3.483h-1.394q-1.392 0-1.742 2.089l-.347 2.09h2.786V341.3q.523.348 1.044.697 1.046.697 3.134-1.393 2.09-2.09 1.742-3.483l-.347-1.393h1.392q1.392 0 4.528-3.83 3.135-3.832 3.134-4.528v-.697h-2.09l.348-.696q.348-.697 2.09-.348 1.742.348 2.437-.348.697-.698 1.046-3.134.348-2.439 1.74-2.439h1.394v-1.741q0-1.742 1.393-2.437 1.393-.697 1.393-2.091v-1.393h-.697q-.694-.004-1.042 1.042m-22.637.348v.697l1.393-.348 1.392-.349-1.392-.348-1.393-.349zm-14.279 2.09-.349.697h4.179l-1.741-.697q-1.74-.697-2.089 0m-3.483 1.393-1.741 1.393 2.09.697 2.089.696-.347-2.09q-.176-1.044-.349-2.089zm-3.134.348.697.347q-.35-.172-.697-.347m.696 2.787 1.394 1.044q-.176-.522-.349-1.044-.349-1.045-1.393-1.045h-1.045zm38.31.348.348.696zm-39.006 1.741.697.347zq-.348-.175-.697-.349zm-8.01 3.135q-.523.695-1.045 1.393l1.045-.349q1.045-.348 1.045-1.393v-1.045zm40.747 1.392.696 1.045.697 1.045h-2.09l.349-1.045q.173-.522.348-1.045m-43.186 1.742q.001 1.044-1.393 1.741t-1.393 2.089v1.394h1.393l-1.045.348q-1.045.35-.696 1.741.347 1.393 1.045 1.393.696.001 1.045-1.393.347-1.393-.349-2.785l-.696-1.393q.521-.175 1.045-.349 1.044-.347 1.392.349l.349.695v-2.786h2.09l-1.394-1.045-1.393-1.045zm37.265 1.741.348.696.349-.696.348-.697h-1.393zm-183.535 7.662q-.001 1.392 1.393 2.09 1.392.695 1.044 1.741-.173.522-.348 1.045l1.393.348q1.393.349 4.179 3.831t8.707 6.269l5.921 2.786v-.697q0-.696-2.09-1.393-2.091-.696-2.091-1.742 0-1.044-2.088-1.393-2.09-.349-2.439-1.393l-.348-1.045-.696.347q-.349.176-.697.349v-2.09h-1.045q-1.045 0-1.393-1.393t-1.393-1.393q-1.046 0-2.09-2.09-1.046-2.09-3.483-3.831l-2.437-1.741zm177.266 0 .349.697zm-35.175 1.393q0 1.394-2.09 2.786t-1.741 2.786 1.393 1.394h1.045l-.348-1.394-.349-1.393 1.046.348 1.044.349-.348-.697q-.348-.697.697-1.741 1.045-1.046.348-2.439l-.697-1.393zm36.917-.696h1.392l-.348 1.044-.347 1.045-.349-1.045zm-6.618 8.01q.348 2.437 1.046 2.437h.696l-.348-1.741-.348-1.742 1.74.348 1.742.349v-1.393q-.696.173-1.394.348-1.393.349-2.437-.348l-1.045-.697zm-35.174 1.044.696.697zm30.996 1.393q-1.046 2.09-2.09 2.09-1.046 0-2.091 1.742t-2.088 1.393l-1.046-.348v2.786h2.09q-.173.522-.348 1.045-.173.522-.348 1.045l3.482-2.437q3.483-2.44 3.483-3.134v-.697q-.871.523-1.742 1.044l-1.742 1.046-.348-.697-.347-.696h1.045q1.044 0 2.09-1.394 1.044-1.392 1.741-1.393h.697l-.349 1.045-.347 1.045 1.045-.697q1.044-.696 1.044-1.393v-.697h-2.089l.696-1.393.697-1.394h-1.045q-1.046-.001-2.09 2.089m-33.782 1.045.696.348zq-.35-.173-.697-.348zm-148.362 3.831q-.696 1.393.349 2.09t3.134.696h2.09l-.348.697-.349.697h1.393q1.394 0 1.742 1.045.349 1.043 2.439 1.393 2.09.349 2.437 1.393.348 1.046 6.617 3.483l6.269 2.438-.348.696q-.175.348-.348.697.695-.35 1.393-.697.696-.347 1.393-.696v2.089q.522-.173 1.045-.348l1.045-.348v1.045q0 1.045 5.92 1.741t5.921 1.394v.697q.523-.35 1.045-.697 1.044-.696 2.437.697 1.394 1.392 2.787.347l1.393-1.044v1.044q0 1.046 5.224 1.742 5.224.697 5.224 1.394v.696l1.393-.696q1.393-.697 2.787 0l1.393.696-.348.697-.348.696q.697-.173 1.393-.348l1.393-.348-.696-1.045-.697-1.045 1.741 1.045q1.742 1.044 2.787.696 1.044-.347 1.045-1.044v-.697l-1.045.348q-1.045.348-4.528-1.045t-5.572-1.045q-2.09.348-2.439-.697t-2.437-.695q-2.09.348-3.134-.697-1.046-1.045-4.527-1.045-3.484 0-3.832-.697-.348-.695-7.314-2.089-6.965-1.392-6.965-2.09 0-.696-8.358-3.831-8.359-3.133-11.841-5.572-3.483-2.438-5.224-2.438t-2.786-1.393l-1.045-1.393q-.352.694-.7 1.391m145.575-.348v1.045l1.393-.349q1.394-.347 1.394-1.044v-.697h-2.787zm-105.872 4.527q2.785 2.786 4.179 2.786 1.393 0 3.832 2.09t4.178 2.089q1.742 0 6.269 2.438l4.528 2.438v-1.394q0-1.392-1.394-1.741t-1.393-1.045v-.697h-1.741q-1.741 0-11.493-4.876l-9.752-4.875zm101.694-.697v.697l1.044-.348 1.046-.349-1.046-.348-1.044-.348zm30.995 0q.173.348.349.697l.347-.697q.175-.346.348-.696h-1.393zm-34.478 2.438-.696 1.046 1.74.348q1.742.348 3.482-.697.871-.523 1.742-1.044l-2.09.347q-2.089.348-2.786-.347-.347-.35-.696-.697zm32.737 0 .697.349-.697.697q-.696.695-1.741 0-1.045-.697-2.439-.349l-1.393.349 2.09 1.741 2.09 1.742v-1.046q0-1.044 2.089-1.393 1.046-.173 2.09-.348l-1.742-1.045q-.87-.523-1.741-1.044zm-35.872 2.787q-1.045.349-1.393 2.089-.175.87-.348 1.742h1.393q1.393 0 1.741-.697l.349-.697-.697.349-.696.348-.349-.697-.348-.696 2.438-.697q1.219-.347 2.437-.696-.87-.175-1.741-.348-1.74-.348-2.786 0m26.469 1.741-1.742 1.393 2.089.349 2.09.347-.696-.696q-.35-.349-.697-.697l1.393-.349q1.393-.347 1.393-1.044v-.697h-1.045q-1.044.002-2.785 1.394m4.876.696.347.697.349-.697.348-.696h-1.393q.174.35.349.696m-36.917 1.393q-1.045 1.394-2.438 1.742-1.392.349-2.09-.348-.347-.35-.696-.696l-1.742 2.09q-1.74 2.089-1.393 3.483l.348 1.393-1.393-1.742q-1.393-1.74-2.089-1.741h-.697l.348 1.044q.173.523.349 1.046l-1.046-.349-1.044-.348v2.09h-4.18l.349 1.045q.347 1.044 1.393 1.044h1.045l-1.045 1.394-1.045 1.393h1.393q1.394 0 2.786-1.741 1.394-1.742 3.134-1.742 1.741 0 2.438-.697.696-.696.349-2.089l-.349-1.393 1.045.696 1.045.697-.348-.697q-.349-.696 1.742-2.09 2.089-1.392 3.482-.696l1.393.696a904 904 0 0 1-1.393-2.786l2.089.349q1.046.172 2.09.348l-1.393-1.394-1.393-1.393q-.521.697-1.044 1.392m24.031 0v.697h2.089l-1.044 2.437-1.045 2.439.696-1.742.697-1.742 1.393.697q1.393.696 2.786 0l1.393-.697-2.089-.348-2.09-.347.349-.697.347-.697 1.046.697 1.044.697q-.173-.523-.348-1.046-.348-1.044-2.786-1.044h-2.437zm-29.254 2.09.696.697zm23.333 1.045q-.348 1.044-3.135 1.394-2.786.347-3.134 1.741l-.348 1.393-1.742-.697q-1.741-.695-10.796 3.134-9.056 3.831-9.752 3.483-.695-.349-1.393.697-.695 1.044-2.438.696-1.74-.348-2.089.349l-.348.696q.695.35 1.392.697 1.394.695 1.045 1.741l-.347 1.045h1.044q1.046 0 1.742-1.742l.697-1.741 2.089 1.045q2.09 1.044 2.787 0t2.089-.697q1.394.348 2.438-.696 1.046-1.046 6.618-2.438t6.617-3.135q1.044-1.74 3.482-1.393 2.439.348 5.224-1.044l2.786-1.394-1.393-2.09h1.045q1.045 0 1.393-1.045.173-.522.349-1.045h-2.787q-2.787.001-3.135 1.046m-1.393 2.438h1.044l-.347 1.393q-.349 1.393-1.741 1.393t-1.742-1.044l-.348-1.045q.347.173.697.347.347.175.696.349l.348-.696q.349-.697 1.393-.697m-26.816 1.044.696.349-1.393 1.044-1.393 1.046q-.175-.348-.348-.697-.348-.697.697-1.393 1.043-.697 1.741-.349m14.627 2.439 1.393.348q1.393.349 1.393 1.045 0 .697-1.741 1.393l-1.742.697v-2.09h2.09l-.697-.697zm-6.269 3.482 1.394.697q.695.348 1.393.696h-2.787v-1.393m-2.787.697.697.696.697.697q-.696.175-1.394.348l-1.392.349.697-1.045zm-6.269 4.527q.348.175.697.348z"/></svg>